<svg width="143" height="145" viewBox="0 0 143 145" fill="none" xmlns="http://www.w3.org/2000/svg">
<rect y="144.366" width="143.732" height="143" rx="71.5" transform="rotate(-90 0 144.366)" fill="#FDF9F6"/>
<path d="M36.3469 37.9135C35.2475 39.0484 33.9625 39.6205 32.4917 39.6297C31.0208 39.639 29.7324 39.1079 28.6262 38.0364C27.5129 36.958 26.9411 35.687 26.9107 34.2236C26.8732 32.7533 27.404 31.4506 28.5033 30.3158C29.1643 29.6334 29.9347 29.1615 30.8146 28.9C31.6942 28.6243 32.5635 28.5892 33.4224 28.7948L32.9239 30.797C32.4054 30.6568 31.8858 30.6686 31.3651 30.8324C30.8372 30.9894 30.3645 31.2833 29.9471 31.7143C29.2374 32.4469 28.8932 33.2621 28.9146 34.1599C28.9429 35.0505 29.3234 35.8507 30.056 36.5604C30.7815 37.2631 31.5897 37.6144 32.4808 37.6144C33.3788 37.6072 34.1827 37.2372 34.8924 36.5046C35.3098 36.0736 35.5922 35.5953 35.7394 35.0697C35.8864 34.5298 35.8816 34.0101 35.7252 33.5105L37.7105 32.9485C37.9433 33.8005 37.943 34.6704 37.7096 35.5581C37.469 36.4388 37.0148 37.224 36.3469 37.9135Z" fill="#FF5521"/>
<path d="M47.6024 29.0997L43.8803 27.1237L42.5433 27.9562L44.4701 31.0503L42.713 32.1446L37.1625 23.2315L40.7277 21.0113C41.5511 20.4986 42.4312 20.3511 43.3679 20.5688C44.3045 20.7866 45.0266 21.303 45.5341 22.1179C45.8777 22.6696 46.0405 23.281 46.0224 23.9519C45.9991 24.6144 45.8025 25.2257 45.4327 25.7858L49.4996 27.9183L47.6024 29.0997ZM39.9425 23.7798L41.5839 26.4155L43.392 25.2896C43.723 25.0834 43.9281 24.779 44.0072 24.3763C44.081 23.9652 44.0043 23.5771 43.7769 23.2121C43.5496 22.8471 43.2379 22.6112 42.8416 22.5046C42.4453 22.398 42.0817 22.4477 41.7506 22.6539L39.9425 23.7798Z" fill="#FF5521"/>
<path d="M58.8709 24.646L57.6902 23.0414L53.708 24.3285L53.6898 26.3206L51.5631 27.008L51.8307 15.8867L54.2714 15.0978L61.0118 23.954L58.8709 24.646ZM53.7409 22.2843L56.4813 21.3985L53.7917 17.7593L53.7409 22.2843Z" fill="#FF5521"/>
<path d="M69.6883 14.6054L65.4981 14.892L65.6679 17.3762L69.7384 17.0978L69.8735 19.0732L65.803 19.3515L66.0793 23.3921L64.0141 23.5333L63.2978 13.0578L69.5532 12.63L69.6883 14.6054Z" fill="#FF5521"/>
<path d="M85.0993 14.1701L84.7524 16.1195L81.9613 15.6229L80.4689 24.0112L78.4309 23.6486L79.9233 15.2603L77.1469 14.7663L77.4937 12.817L85.0993 14.1701Z" fill="#FF5521"/>
<path d="M95.7184 17.8639L97.6081 18.7088L93.3226 28.2944L91.4329 27.4496L95.7184 17.8639Z" fill="#FF5521"/>
<path d="M109.975 26.7742L111.604 28.0511L105.127 36.3153L103.887 35.3437L104.306 27.5148L100.346 32.5677L98.7164 31.2908L105.194 23.0267L106.433 23.9982L106.024 31.8153L109.975 26.7742Z" fill="#FF5521"/>
<path d="M118.273 43.3138L117.634 43.8115C116.45 44.7332 115.197 45.101 113.873 44.9151C112.55 44.7291 111.421 44.0365 110.487 42.8373C109.491 41.5592 109.079 40.1755 109.25 38.6861C109.435 37.1985 110.127 35.9877 111.326 35.0538C112.533 34.1136 113.878 33.7321 115.359 33.9092C116.847 34.0942 118.07 34.8021 119.028 36.0329C119.631 36.806 120.003 37.6504 120.146 38.566C120.296 39.4754 120.218 40.3349 119.911 41.1447L118.018 40.3749C118.204 39.9135 118.247 39.3986 118.146 38.8304C118.052 38.27 117.814 37.7452 117.433 37.2561C116.819 36.4671 116.052 36.019 115.132 35.9117C114.226 35.8062 113.378 36.0606 112.589 36.6751C111.808 37.2834 111.361 38.0436 111.247 38.9558C111.148 39.8698 111.43 40.7528 112.094 41.6049C112.585 42.2361 113.129 42.6492 113.724 42.8444C114.334 43.0414 114.942 43.0243 115.548 42.7933L113.594 40.2844L115.038 39.1599L118.273 43.3138Z" fill="#FF5521"/>
<path d="M130.869 65.5726L128.918 65.9134L128.43 63.1207L120.037 64.5873L119.681 62.5482L128.074 61.0816L127.588 58.3037L129.539 57.9629L130.869 65.5726Z" fill="#FF5521"/>
<path d="M120.351 78.941L124.138 77.0912L124.25 75.5202L120.614 75.2603L120.762 73.1956L131.235 73.9442L130.936 78.1335C130.866 79.101 130.468 79.8997 129.742 80.5295C129.015 81.1593 128.173 81.4399 127.215 81.3715C126.567 81.3252 125.977 81.0975 125.444 80.6885C124.922 80.2802 124.543 79.7619 124.307 79.1335L120.192 81.1703L120.351 78.941ZM129.157 75.871L126.06 75.6496L125.908 77.7742C125.881 78.1632 126.006 78.508 126.286 78.8087C126.575 79.1101 126.934 79.2761 127.363 79.3068C127.792 79.3374 128.166 79.2238 128.485 78.9659C128.804 78.708 128.978 78.3845 129.006 77.9955L129.157 75.871Z" fill="#FF5521"/>
<path d="M128.224 91.1424L127.582 93.1101L117.601 89.85L118.243 87.8823L128.224 91.1424Z" fill="#FF5521"/>
<path d="M121.122 105.825C120.585 106.68 119.846 107.22 118.903 107.443C117.96 107.667 117.07 107.515 116.231 106.99C115.392 106.464 114.868 105.728 114.658 104.782C114.449 103.836 114.612 102.935 115.149 102.08L116.129 100.516L113.206 98.6838L114.306 96.93L123.201 102.508L121.122 105.825ZM116.788 103.108C116.554 103.48 116.488 103.869 116.588 104.274C116.696 104.685 116.941 105.009 117.322 105.248C117.712 105.493 118.111 105.572 118.519 105.486C118.928 105.399 119.249 105.17 119.482 104.797L120.462 103.234L117.768 101.544L116.788 103.108Z" fill="#FF5521"/>
<path d="M104.365 108.985C105.114 108.264 105.904 107.823 106.734 107.662C107.572 107.508 108.372 107.619 109.136 107.994L108.579 109.967C107.541 109.481 106.59 109.654 105.726 110.486C105.308 110.888 105.075 111.258 105.026 111.597C104.977 111.936 105.063 112.22 105.285 112.451C105.542 112.717 105.859 112.808 106.235 112.723C106.618 112.646 107.199 112.399 107.978 111.982C108.414 111.757 108.799 111.58 109.134 111.452C109.462 111.331 109.824 111.239 110.221 111.176C110.618 111.127 111.003 111.173 111.375 111.314C111.747 111.456 112.1 111.7 112.433 112.045C113.092 112.73 113.374 113.506 113.28 114.374C113.185 115.256 112.796 116.027 112.111 116.686C111.499 117.275 110.816 117.641 110.064 117.782C109.311 117.937 108.549 117.873 107.776 117.59L108.333 115.659C109.26 116.016 110.054 115.876 110.717 115.238C111.027 114.94 111.202 114.632 111.244 114.314C111.285 114.011 111.198 113.748 110.983 113.524C110.754 113.286 110.47 113.186 110.129 113.222C109.789 113.272 109.255 113.481 108.526 113.849C108.226 113.999 107.998 114.108 107.841 114.175C107.684 114.257 107.463 114.352 107.178 114.46C106.893 114.582 106.661 114.659 106.484 114.691C106.299 114.729 106.076 114.757 105.814 114.773C105.552 114.79 105.323 114.768 105.126 114.707C104.922 114.654 104.704 114.558 104.474 114.419C104.243 114.294 104.023 114.124 103.815 113.908C103.142 113.209 102.864 112.408 102.98 111.505C103.089 110.609 103.551 109.769 104.365 108.985Z" fill="#FF5521"/>
<path d="M83.3881 120.254C84.3883 119.969 85.2928 119.95 86.1017 120.198C86.9134 120.455 87.5683 120.929 88.0665 121.619L86.6481 123.099C85.9604 122.183 85.0396 121.889 83.8856 122.218C83.3278 122.377 82.9479 122.594 82.7458 122.87C82.5437 123.146 82.4865 123.438 82.5743 123.746C82.6757 124.102 82.9125 124.331 83.2847 124.433C83.6596 124.544 84.2887 124.599 85.1719 124.596C85.6623 124.602 86.0854 124.627 86.4411 124.671C86.7872 124.718 87.1505 124.807 87.5309 124.938C87.9044 125.081 88.2223 125.302 88.4845 125.602C88.7467 125.901 88.9436 126.282 89.0752 126.744C89.3356 127.657 89.2204 128.475 88.7296 129.197C88.232 129.932 87.5263 130.429 86.6127 130.69C85.7953 130.923 85.0213 130.925 84.2906 130.697C83.5531 130.481 82.9098 130.066 82.3608 129.453L83.7586 128.01C84.4092 128.76 85.1769 129.009 86.0617 128.757C86.4752 128.639 86.7747 128.45 86.9603 128.189C87.139 127.94 87.1859 127.667 87.1009 127.369C87.0105 127.051 86.8066 126.829 86.4894 126.701C86.1653 126.585 85.5953 126.519 84.7793 126.502C84.4442 126.494 84.1915 126.482 84.0211 126.469C83.8439 126.467 83.6043 126.447 83.3021 126.408C82.993 126.382 82.7527 126.342 82.581 126.286C82.3997 126.234 82.1896 126.154 81.9507 126.045C81.7117 125.936 81.5195 125.809 81.374 125.664C81.2189 125.521 81.072 125.334 80.9334 125.103C80.7879 124.884 80.6741 124.631 80.5918 124.342C80.3259 123.41 80.4562 122.572 80.9827 121.829C81.4996 121.089 82.3014 120.564 83.3881 120.254Z" fill="#FF5521"/>
<path d="M73.2881 132.422L71.2193 132.492L70.869 121.997L72.9378 121.928L73.2881 132.422Z" fill="#FF5521"/>
<path d="M56.5681 130.664L54.544 130.23L56.7429 119.963L58.283 120.293L61.3388 127.513L62.6832 121.235L64.7073 121.669L62.5084 131.936L60.9684 131.606L57.9095 124.401L56.5681 130.664Z" fill="#FF5521"/>
<path d="M49.1294 116.481C50.5484 117.176 51.4896 118.221 51.9529 119.617C52.4162 121.013 52.3093 122.403 51.632 123.786C50.9504 125.178 49.9184 126.114 48.536 126.595C47.1492 127.085 45.7463 126.983 44.3273 126.288C43.474 125.871 42.7871 125.284 42.2665 124.528C41.7325 123.776 41.4306 122.96 41.3606 122.08L43.4189 121.935C43.4458 122.472 43.6176 122.962 43.9343 123.407C44.2467 123.86 44.6723 124.219 45.2112 124.483C46.1272 124.932 47.0089 125.007 47.8562 124.709C48.6944 124.407 49.3379 123.798 49.7864 122.882C50.2306 121.975 50.3149 121.098 50.0395 120.25C49.7552 119.398 49.1549 118.748 48.2389 118.3C47.7 118.036 47.1578 117.915 46.6124 117.937C46.0536 117.964 45.5608 118.129 45.134 118.433L43.986 116.718C44.7243 116.234 45.5517 115.965 46.4681 115.913C47.3801 115.869 48.2672 116.059 49.1294 116.481Z" fill="#FF5521"/>
<path d="M39.6615 113.102L36.2761 110.252L37.5512 108.737L42.5202 112.92L35.7585 120.953L30.8469 116.819L32.1219 115.304L35.4499 118.105L36.8892 116.395L33.8481 113.836L35.1038 112.344L38.1449 114.903L39.6615 113.102Z" fill="#FF5521"/>
<path d="M15.9417 95.4978L15.2699 93.8278L25.0114 89.9094L25.7839 91.8299L18.0742 94.931L19.328 96.5608L17.8762 97.6945L15.9417 95.4978Z" fill="#FF5521"/>
<path d="M14.8936 77.0435C15.6959 76.9321 16.428 77.0423 17.09 77.3744L17.088 77.3595L22.4261 79.9191L22.7523 82.2665L19.0428 80.4196C19.173 81.5019 18.9538 82.4309 18.3852 83.2066C17.8053 83.9737 16.9903 84.4302 15.9404 84.5762C14.8806 84.7234 13.9658 84.4972 13.1959 83.8975C12.4246 83.2878 11.9619 82.4284 11.8077 81.319C11.6522 80.1998 11.863 79.2467 12.4402 78.4597C13.0061 77.6643 13.8239 77.1922 14.8936 77.0435ZM15.6576 82.5407C16.1726 82.4691 16.5609 82.2486 16.8226 81.8791C17.0828 81.4996 17.1792 81.0672 17.1118 80.5819C17.0416 80.0768 16.8302 79.6821 16.4778 79.3979C16.1253 79.1137 15.6915 79.0074 15.1765 79.079C14.6614 79.1506 14.278 79.3704 14.0263 79.7386C13.7647 80.1081 13.669 80.5455 13.7392 81.0506C13.8066 81.5359 14.0173 81.9256 14.3711 82.2197C14.7236 82.5039 15.1524 82.6109 15.6576 82.5407Z" fill="#FF5521"/>
<path d="M17.0251 63.9336C17.7047 63.0306 18.5964 62.6379 19.7001 62.7557C20.6647 62.8585 21.3893 63.2778 21.874 64.0133C22.3598 64.7389 22.5412 65.6785 22.4181 66.8319C22.294 67.9953 21.9181 68.8804 21.2902 69.4873C20.6623 70.0941 19.866 70.3461 18.9015 70.2432C17.7978 70.1255 17.0084 69.5586 16.5335 68.5425C15.9291 69.2121 15.1695 69.4982 14.2547 69.4006C13.2901 69.2977 12.5739 68.8945 12.1058 68.1909C11.6389 67.4773 11.4568 66.6383 11.5597 65.6738C11.6626 64.7092 12.017 63.9324 12.6229 63.3434C13.2288 62.7543 14.014 62.5112 14.9785 62.6141C15.9033 62.7127 16.5855 63.1526 17.0251 63.9336ZM13.9303 64.9461C13.685 65.1713 13.5412 65.4828 13.4987 65.8806C13.4563 66.2783 13.5312 66.6132 13.7235 66.8851C13.9157 67.157 14.2008 67.3131 14.5786 67.3534C14.9565 67.3937 15.273 67.3018 15.5282 67.0776C15.7735 66.8523 15.9173 66.5408 15.9598 66.1431C16.0022 65.7453 15.9273 65.4105 15.735 65.1386C15.5329 64.8656 15.2428 64.709 14.865 64.6686C14.4871 64.6283 14.1755 64.7208 13.9303 64.9461ZM19.9742 67.8233C20.2567 67.5316 20.425 67.1322 20.4791 66.6251C20.5332 66.118 20.4524 65.697 20.2367 65.3623C20.0121 65.0165 19.6711 64.8192 19.2137 64.7704C18.7662 64.7227 18.4012 64.8447 18.1187 65.1364C17.8273 65.4171 17.6546 65.811 17.6005 66.3181C17.5464 66.8252 17.6316 67.2516 17.8562 67.5974C18.0719 67.9322 18.4035 68.1234 18.851 68.1712C19.3084 68.2199 19.6828 68.104 19.9742 67.8233Z" fill="#FF5521"/>
<path d="M18.0948 53.4874C18.4974 52.4741 19.1348 51.7648 20.0069 51.3597C20.8697 50.9512 21.7942 50.9273 22.7803 51.2879C23.7852 51.6554 24.4898 52.2911 24.8939 53.1949C25.2887 54.0953 25.2937 55.0714 24.9091 56.1232C24.5244 57.1751 23.8908 57.9177 23.0083 58.3509C22.1292 58.7748 21.1826 58.8012 20.1683 58.4303C19.4169 58.1555 18.8252 57.7208 18.3932 57.1263L14.8815 52.3602L15.6955 50.1344L18.0948 53.4874ZM22.2134 56.463C22.6178 56.2596 22.906 55.9231 23.0777 55.4535C23.2494 54.9839 23.2464 54.5409 23.0686 54.1245C22.8942 53.6987 22.5629 53.3965 22.0745 53.2179C21.5955 53.0428 21.1521 53.0616 20.7442 53.2744C20.3397 53.4779 20.0516 53.8144 19.8798 54.284C19.7081 54.7536 19.7111 55.1966 19.8889 55.613C20.0573 56.0259 20.3857 56.3217 20.8741 56.5003C21.3625 56.6789 21.8089 56.6665 22.2134 56.463Z" fill="#FF5521"/>
<path d="M71.7996 49.3149C68.863 67.7609 62.2075 72.438 45.3965 75.0603C63.4574 77.7879 68.416 84.2394 71.7996 100.994C74.5134 82.0164 80.917 77.4073 97.0752 75.0603C79.9308 72.9486 75.0407 66.6169 71.7996 49.3149Z" fill="#FF5521"/>
</svg>
