<svg width="250" height="250" viewBox="0 0 250 250" fill="none" xmlns="http://www.w3.org/2000/svg">
<mask id="path-2-outside-1_1_6375" maskUnits="userSpaceOnUse" x="87.502" y="179.506" width="15.0314" height="16.9335" fill="black">
<rect fill="white" x="87.502" y="179.506" width="15.0314" height="16.9335"/>
<path d="M88.5213 191.879L89.184 190.48L92.474 192.039L97.0828 182.312L98.545 183.005L93.9363 192.732L97.2104 194.283L96.5477 195.682L88.5213 191.879Z"/>
</mask>
<path d="M88.5213 191.879L89.184 190.48L92.474 192.039L97.0828 182.312L98.545 183.005L93.9363 192.732L97.2104 194.283L96.5477 195.682L88.5213 191.879Z" fill="#FF5521"/>
<path d="M88.5213 191.879L88.2704 191.76L88.1514 192.011L88.4024 192.13L88.5213 191.879ZM89.184 190.48L89.3029 190.229L89.052 190.11L88.933 190.361L89.184 190.48ZM92.474 192.039L92.3551 192.29L92.6061 192.409L92.725 192.158L92.474 192.039ZM97.0828 182.312L97.2017 182.061L96.9507 181.942L96.8318 182.193L97.0828 182.312ZM98.545 183.005L98.796 183.124L98.9149 182.873L98.6639 182.754L98.545 183.005ZM93.9363 192.732L93.6853 192.613L93.5664 192.864L93.8174 192.983L93.9363 192.732ZM97.2104 194.283L97.4614 194.402L97.5803 194.151L97.3293 194.032L97.2104 194.283ZM96.5477 195.682L96.4288 195.933L96.6798 196.052L96.7987 195.801L96.5477 195.682ZM88.7723 191.998L89.435 190.599L88.933 190.361L88.2704 191.76L88.7723 191.998ZM89.0651 190.731L92.3551 192.29L92.5929 191.788L89.3029 190.229L89.0651 190.731ZM92.725 192.158L97.3337 182.431L96.8318 182.193L92.2231 191.92L92.725 192.158ZM96.9639 182.563L98.4261 183.256L98.6639 182.754L97.2017 182.061L96.9639 182.563ZM98.2941 182.886L93.6853 192.613L94.1872 192.851L98.796 183.124L98.2941 182.886ZM93.8174 192.983L97.0915 194.534L97.3293 194.032L94.0552 192.481L93.8174 192.983ZM96.9595 194.164L96.2968 195.563L96.7987 195.801L97.4614 194.402L96.9595 194.164ZM96.6666 195.431L88.6402 191.628L88.4024 192.13L96.4288 195.933L96.6666 195.431Z" fill="#FF5521" mask="url(#path-2-outside-1_1_6375)"/>
<mask id="path-4-outside-2_1_6375" maskUnits="userSpaceOnUse" x="74.1507" y="171.754" width="16.3948" height="17.2004" fill="black">
<rect fill="white" x="74.1507" y="171.754" width="16.3948" height="17.2004"/>
<path d="M83.8474 173.981L83.2337 179.41L85.557 181.148L88.3813 177.375L89.6908 178.355L82.3138 188.211L78.3712 185.261C77.5264 184.628 77.0284 183.787 76.8773 182.736C76.7191 181.695 76.9562 180.753 77.5885 179.908C78.0663 179.269 78.6943 178.831 79.4726 178.594C80.2415 178.349 81.0072 178.344 81.7696 178.577L82.3971 172.896L83.8474 173.981ZM81.9211 186.006L84.6717 182.331L82.0387 180.361C81.5505 179.995 81.004 179.864 80.3991 179.968C79.7778 180.074 79.2774 180.381 78.898 180.888C78.5186 181.395 78.3691 181.956 78.4494 182.573C78.5204 183.183 78.7999 183.67 79.2881 184.036L81.9211 186.006Z"/>
</mask>
<path d="M83.8474 173.981L83.2337 179.41L85.557 181.148L88.3813 177.375L89.6908 178.355L82.3138 188.211L78.3712 185.261C77.5264 184.628 77.0284 183.787 76.8773 182.736C76.7191 181.695 76.9562 180.753 77.5885 179.908C78.0663 179.269 78.6943 178.831 79.4726 178.594C80.2415 178.349 81.0072 178.344 81.7696 178.577L82.3971 172.896L83.8474 173.981ZM81.9211 186.006L84.6717 182.331L82.0387 180.361C81.5505 179.995 81.004 179.864 80.3991 179.968C79.7778 180.074 79.2774 180.381 78.898 180.888C78.5186 181.395 78.3691 181.956 78.4494 182.573C78.5204 183.183 78.7999 183.67 79.2881 184.036L81.9211 186.006Z" fill="#FF5521"/>
<path d="M83.8474 173.981L84.1233 174.013L84.1412 173.854L84.0138 173.759L83.8474 173.981ZM83.2337 179.41L82.9577 179.378L82.9399 179.537L83.0673 179.632L83.2337 179.41ZM85.557 181.148L85.3906 181.371L85.6129 181.537L85.7793 181.315L85.557 181.148ZM88.3813 177.375L88.5477 177.153L88.3254 176.986L88.159 177.208L88.3813 177.375ZM89.6908 178.355L89.9132 178.521L90.0796 178.299L89.8572 178.133L89.6908 178.355ZM82.3138 188.211L82.1474 188.434L82.3697 188.6L82.5361 188.378L82.3138 188.211ZM76.8773 182.736L77.1521 182.697L77.1518 182.695L76.8773 182.736ZM79.4726 178.594L79.5537 178.859L79.5568 178.858L79.4726 178.594ZM81.7696 178.577L81.6881 178.843L82.0088 178.941L82.0456 178.608L81.7696 178.577ZM82.3971 172.896L82.5635 172.674L82.1744 172.382L82.121 172.865L82.3971 172.896ZM81.9211 186.006L81.7547 186.229L81.9771 186.395L82.1435 186.173L81.9211 186.006ZM84.6717 182.331L84.8941 182.498L85.0605 182.275L84.8381 182.109L84.6717 182.331ZM80.3991 179.968L80.4459 180.242L80.446 180.242L80.3991 179.968ZM78.4494 182.573L78.7253 182.541L78.7248 182.537L78.4494 182.573ZM83.5714 173.95L82.9577 179.378L83.5096 179.441L84.1233 174.013L83.5714 173.95ZM83.0673 179.632L85.3906 181.371L85.7234 180.926L83.4001 179.187L83.0673 179.632ZM85.7793 181.315L88.6037 177.541L88.159 177.208L85.3346 180.982L85.7793 181.315ZM88.2149 177.597L89.5244 178.577L89.8572 178.133L88.5477 177.153L88.2149 177.597ZM89.4685 178.189L82.0915 188.045L82.5361 188.378L89.9132 178.521L89.4685 178.189ZM82.4802 187.989L78.5376 185.038L78.2048 185.483L82.1474 188.434L82.4802 187.989ZM78.5376 185.038C77.7521 184.45 77.2928 183.675 77.1521 182.697L76.6024 182.776C76.7639 183.899 77.3006 184.806 78.2048 185.483L78.5376 185.038ZM77.1518 182.695C77.0049 181.727 77.223 180.859 77.8108 180.074L77.3662 179.741C76.6894 180.646 76.4334 181.663 76.6027 182.778L77.1518 182.695ZM77.8108 180.074C78.2525 179.484 78.8306 179.08 79.5537 178.859L79.3915 178.328C78.558 178.583 77.8801 179.055 77.3662 179.741L77.8108 180.074ZM79.5568 178.858C80.2726 178.631 80.9805 178.626 81.6881 178.843L81.851 178.312C81.0339 178.061 80.2105 178.068 79.3884 178.329L79.5568 178.858ZM82.0456 178.608L82.6731 172.926L82.121 172.865L81.4935 178.547L82.0456 178.608ZM82.2307 173.118L83.681 174.204L84.0138 173.759L82.5635 172.674L82.2307 173.118ZM82.1435 186.173L84.8941 182.498L84.4494 182.165L81.6988 185.84L82.1435 186.173ZM84.8381 182.109L82.2051 180.138L81.8723 180.583L84.5053 182.554L84.8381 182.109ZM82.2051 180.138C81.6554 179.727 81.0316 179.578 80.3521 179.694L80.446 180.242C80.9764 180.151 81.4456 180.264 81.8723 180.583L82.2051 180.138ZM80.3523 179.694C79.6605 179.813 79.0975 180.158 78.6757 180.721L79.1203 181.054C79.4573 180.604 79.895 180.336 80.4459 180.242L80.3523 179.694ZM78.6757 180.721C78.2538 181.285 78.0842 181.919 78.1741 182.609L78.7248 182.537C78.654 181.994 78.7834 181.504 79.1203 181.054L78.6757 180.721ZM78.1736 182.605C78.2533 183.29 78.572 183.847 79.1217 184.258L79.4545 183.813C79.0278 183.494 78.7875 183.075 78.7253 182.541L78.1736 182.605ZM79.1217 184.258L81.7547 186.229L82.0875 185.784L79.4545 183.813L79.1217 184.258Z" fill="#FF5521" mask="url(#path-4-outside-2_1_6375)"/>
<mask id="path-6-outside-3_1_6375" maskUnits="userSpaceOnUse" x="63.8121" y="162.685" width="17.7687" height="17.5311" fill="black">
<rect fill="white" x="63.8121" y="162.685" width="17.7687" height="17.5311"/>
<path d="M74.056 165.393C75.2121 165.508 76.2433 166.072 77.1497 167.086C78.0561 168.1 78.5055 169.192 78.498 170.363C78.4739 171.532 77.968 172.559 76.9801 173.442L70.8824 178.892L69.7924 177.672L75.8377 172.269C76.4846 171.691 76.8285 171.037 76.8693 170.309C76.9014 169.588 76.5971 168.869 75.9564 168.153C75.3157 167.436 74.6355 167.053 73.9158 167.004C73.1873 166.963 72.4996 167.232 71.8527 167.81L65.8075 173.213L64.7292 172.007L70.8269 166.557C71.8147 165.674 72.8911 165.286 74.056 165.393Z"/>
</mask>
<path d="M74.056 165.393C75.2121 165.508 76.2433 166.072 77.1497 167.086C78.0561 168.1 78.5055 169.192 78.498 170.363C78.4739 171.532 77.968 172.559 76.9801 173.442L70.8824 178.892L69.7924 177.672L75.8377 172.269C76.4846 171.691 76.8285 171.037 76.8693 170.309C76.9014 169.588 76.5971 168.869 75.9564 168.153C75.3157 167.436 74.6355 167.053 73.9158 167.004C73.1873 166.963 72.4996 167.232 71.8527 167.81L65.8075 173.213L64.7292 172.007L70.8269 166.557C71.8147 165.674 72.8911 165.286 74.056 165.393Z" fill="#FF5521"/>
<path d="M74.056 165.393L74.0834 165.117L74.0813 165.116L74.056 165.393ZM78.498 170.363L78.7757 170.369L78.7757 170.365L78.498 170.363ZM70.8824 178.892L70.6754 179.077L70.8604 179.284L71.0675 179.099L70.8824 178.892ZM69.7924 177.672L69.6074 177.465L69.4003 177.65L69.5854 177.857L69.7924 177.672ZM76.8693 170.309L77.1466 170.324L77.1467 170.321L76.8693 170.309ZM73.9158 167.004L73.9345 166.727L73.9313 166.727L73.9158 167.004ZM65.8075 173.213L65.6004 173.399L65.7855 173.606L65.9925 173.421L65.8075 173.213ZM64.7292 172.007L64.5441 171.8L64.3371 171.985L64.5222 172.192L64.7292 172.007ZM74.0286 165.669C75.1039 165.776 76.0742 166.299 76.9427 167.271L77.3568 166.901C76.4125 165.844 75.3203 165.239 74.0834 165.117L74.0286 165.669ZM76.9427 167.271C77.8111 168.243 78.2273 169.271 78.2203 170.361L78.7757 170.365C78.7837 169.114 78.3011 167.958 77.3568 166.901L76.9427 167.271ZM78.2204 170.357C78.1981 171.439 77.7339 172.395 76.795 173.234L77.1652 173.649C78.2021 172.722 78.7498 171.626 78.7757 170.369L78.2204 170.357ZM76.795 173.234L70.6974 178.684L71.0675 179.099L77.1652 173.649L76.795 173.234ZM71.0895 178.706L69.9995 177.487L69.5854 177.857L70.6754 179.077L71.0895 178.706ZM69.9775 177.879L76.0227 172.476L75.6526 172.062L69.6074 177.465L69.9775 177.879ZM76.0227 172.476C76.7134 171.859 77.1008 171.14 77.1466 170.324L76.5921 170.293C76.5561 170.935 76.2558 171.523 75.6526 172.062L76.0227 172.476ZM77.1467 170.321C77.183 169.507 76.836 168.72 76.1635 167.968L75.7494 168.338C76.3583 169.019 76.6198 169.67 76.5919 170.297L77.1467 170.321ZM76.1635 167.968C75.491 167.215 74.7481 166.782 73.9345 166.727L73.897 167.281C74.5229 167.324 75.1404 167.656 75.7494 168.338L76.1635 167.968ZM73.9313 166.727C73.1156 166.681 72.3583 166.986 71.6676 167.603L72.0378 168.017C72.6409 167.478 73.259 167.246 73.9002 167.282L73.9313 166.727ZM71.6676 167.603L65.6224 173.006L65.9925 173.421L72.0378 168.017L71.6676 167.603ZM66.0145 173.028L64.9363 171.822L64.5222 172.192L65.6004 173.399L66.0145 173.028ZM64.9143 172.214L71.0119 166.764L70.6418 166.35L64.5441 171.8L64.9143 172.214ZM71.0119 166.764C71.9507 165.925 72.953 165.571 74.0306 165.669L74.0813 165.116C72.8292 165.002 71.6787 165.423 70.6418 166.35L71.0119 166.764Z" fill="#FF5521" mask="url(#path-6-outside-3_1_6375)"/>
<mask id="path-8-outside-4_1_6375" maskUnits="userSpaceOnUse" x="56.3641" y="153.033" width="17.1437" height="15.7477" fill="black">
<rect fill="white" x="56.3641" y="153.033" width="17.1437" height="15.7477"/>
<path d="M70.1408 157.473C70.7277 158.461 70.9988 159.446 70.9543 160.427C70.9038 161.398 70.5592 162.264 69.9204 163.025L68.5063 162.229C69.541 161.055 69.6212 159.732 68.7468 158.26C68.3157 157.535 67.8401 157.067 67.3202 156.858C66.7903 156.654 66.2783 156.699 65.7844 156.993C65.2803 157.292 65.0161 157.708 64.9916 158.241C64.9672 158.774 65.0803 159.572 65.331 160.637C65.4534 161.165 65.5431 161.568 65.6002 161.848C65.6472 162.134 65.6898 162.504 65.7281 162.959C65.7502 163.409 65.7215 163.774 65.6418 164.053C65.5521 164.338 65.398 164.641 65.1794 164.962C64.9548 165.273 64.651 165.542 64.268 165.769C63.3506 166.314 62.4332 166.423 61.5157 166.095C60.5881 165.773 59.8488 165.149 59.2978 164.221C58.8008 163.385 58.5813 162.533 58.6394 161.667C58.6915 160.79 58.9725 159.989 59.4824 159.263L60.8635 160.039C60.0443 161.139 59.976 162.264 60.6587 163.413C61.0001 163.988 61.4167 164.367 61.9085 164.553C62.4004 164.738 62.8882 164.687 63.3721 164.399C63.8358 164.124 64.0898 163.748 64.1341 163.271C64.1784 162.795 64.0891 162.071 63.8661 161.098C63.7832 160.752 63.7259 160.507 63.6944 160.362C63.6629 160.217 63.6226 159.988 63.5737 159.676C63.5188 159.355 63.4857 159.115 63.4743 158.958C63.4629 158.801 63.4528 158.589 63.4439 158.322C63.4291 158.044 63.4421 157.825 63.483 157.664C63.5239 157.504 63.5811 157.313 63.6544 157.092C63.7117 156.867 63.798 156.679 63.9133 156.529C64.0286 156.379 64.175 156.223 64.3527 156.063C64.5143 155.899 64.7059 155.751 64.9277 155.619C65.8551 155.069 66.7967 154.966 67.7523 155.312C68.6979 155.664 69.494 156.384 70.1408 157.473Z"/>
</mask>
<path d="M70.1408 157.473C70.7277 158.461 70.9988 159.446 70.9543 160.427C70.9038 161.398 70.5592 162.264 69.9204 163.025L68.5063 162.229C69.541 161.055 69.6212 159.732 68.7468 158.26C68.3157 157.535 67.8401 157.067 67.3202 156.858C66.7903 156.654 66.2783 156.699 65.7844 156.993C65.2803 157.292 65.0161 157.708 64.9916 158.241C64.9672 158.774 65.0803 159.572 65.331 160.637C65.4534 161.165 65.5431 161.568 65.6002 161.848C65.6472 162.134 65.6898 162.504 65.7281 162.959C65.7502 163.409 65.7215 163.774 65.6418 164.053C65.5521 164.338 65.398 164.641 65.1794 164.962C64.9548 165.273 64.651 165.542 64.268 165.769C63.3506 166.314 62.4332 166.423 61.5157 166.095C60.5881 165.773 59.8488 165.149 59.2978 164.221C58.8008 163.385 58.5813 162.533 58.6394 161.667C58.6915 160.79 58.9725 159.989 59.4824 159.263L60.8635 160.039C60.0443 161.139 59.976 162.264 60.6587 163.413C61.0001 163.988 61.4167 164.367 61.9085 164.553C62.4004 164.738 62.8882 164.687 63.3721 164.399C63.8358 164.124 64.0898 163.748 64.1341 163.271C64.1784 162.795 64.0891 162.071 63.8661 161.098C63.7832 160.752 63.7259 160.507 63.6944 160.362C63.6629 160.217 63.6226 159.988 63.5737 159.676C63.5188 159.355 63.4857 159.115 63.4743 158.958C63.4629 158.801 63.4528 158.589 63.4439 158.322C63.4291 158.044 63.4421 157.825 63.483 157.664C63.5239 157.504 63.5811 157.313 63.6544 157.092C63.7117 156.867 63.798 156.679 63.9133 156.529C64.0286 156.379 64.175 156.223 64.3527 156.063C64.5143 155.899 64.7059 155.751 64.9277 155.619C65.8551 155.069 66.7967 154.966 67.7523 155.312C68.6979 155.664 69.494 156.384 70.1408 157.473Z" fill="#FF5521"/>
<path d="M70.9543 160.427L71.2317 160.441L71.2317 160.439L70.9543 160.427ZM69.9204 163.025L69.7842 163.267L69.985 163.38L70.1332 163.204L69.9204 163.025ZM68.5063 162.229L68.2979 162.045L68.0711 162.302L68.37 162.471L68.5063 162.229ZM67.3202 156.858L67.424 156.6L67.4197 156.598L67.3202 156.858ZM64.9916 158.241L65.2691 158.254L65.2691 158.254L64.9916 158.241ZM65.331 160.637L65.6016 160.575L65.6013 160.574L65.331 160.637ZM65.6002 161.848L65.8744 161.803L65.8723 161.793L65.6002 161.848ZM65.7281 162.959L66.0056 162.945L66.0048 162.935L65.7281 162.959ZM65.6418 164.053L65.9068 164.137L65.9089 164.129L65.6418 164.053ZM65.1794 164.962L65.4045 165.125L65.4089 165.118L65.1794 164.962ZM61.5157 166.095L61.6091 165.834L61.6067 165.833L61.5157 166.095ZM58.6394 161.667L58.9165 161.685L58.9166 161.683L58.6394 161.667ZM59.4824 159.263L59.6184 159.021L59.3995 158.898L59.2552 159.104L59.4824 159.263ZM60.8635 160.039L61.0863 160.204L61.2749 159.951L60.9994 159.796L60.8635 160.039ZM61.9085 164.553L61.8107 164.812L61.9085 164.553ZM64.1341 163.271L63.8576 163.246L63.8576 163.246L64.1341 163.271ZM63.8661 161.098L64.1368 161.036L64.1362 161.034L63.8661 161.098ZM63.6944 160.362L63.9657 160.303L63.9657 160.303L63.6944 160.362ZM63.5737 159.676L63.8481 159.633L63.8475 159.63L63.5737 159.676ZM63.4743 158.958L63.7513 158.938L63.7513 158.938L63.4743 158.958ZM63.4439 158.322L63.7215 158.312L63.7212 158.307L63.4439 158.322ZM63.483 157.664L63.7521 157.733L63.483 157.664ZM63.6544 157.092L63.918 157.179L63.9211 157.17L63.9235 157.16L63.6544 157.092ZM63.9133 156.529L64.1336 156.698L64.1336 156.698L63.9133 156.529ZM64.3527 156.063L64.5386 156.27L64.5448 156.264L64.5506 156.258L64.3527 156.063ZM67.7523 155.312L67.8492 155.052L67.8469 155.051L67.7523 155.312ZM69.902 157.615C70.466 158.564 70.7186 159.496 70.6769 160.414L71.2317 160.439C71.2791 159.395 70.9893 158.358 70.3795 157.331L69.902 157.615ZM70.677 160.412C70.6297 161.322 70.3086 162.131 69.7077 162.847L70.1332 163.204C70.8098 162.397 71.1779 161.474 71.2317 160.441L70.677 160.412ZM70.0567 162.783L68.6425 161.987L68.37 162.471L69.7842 163.267L70.0567 162.783ZM68.7146 162.412C69.2651 161.788 69.5751 161.107 69.6196 160.373C69.6639 159.642 69.4429 158.888 68.9856 158.119L68.5081 158.402C68.9251 159.104 69.1011 159.748 69.0652 160.339C69.0295 160.928 68.7821 161.496 68.2979 162.045L68.7146 162.412ZM68.9856 158.119C68.5383 157.366 68.0226 156.841 67.424 156.6L67.2165 157.115C67.6577 157.293 68.093 157.704 68.5081 158.402L68.9856 158.119ZM67.4197 156.598C66.8093 156.364 66.2085 156.418 65.6425 156.754L65.9262 157.231C66.3481 156.981 66.7712 156.944 67.2207 157.117L67.4197 156.598ZM65.6425 156.754C65.0676 157.095 64.7435 157.592 64.7142 158.228L65.2691 158.254C65.2887 157.825 65.4931 157.489 65.9262 157.231L65.6425 156.754ZM64.7142 158.228C64.6879 158.801 64.8089 159.632 65.0607 160.701L65.6013 160.574C65.3517 159.513 65.2465 158.746 65.2691 158.254L64.7142 158.228ZM65.0605 160.7C65.1827 161.227 65.2718 161.627 65.3281 161.904L65.8723 161.793C65.8145 161.509 65.7241 161.103 65.6016 160.575L65.0605 160.7ZM65.3262 161.893C65.3716 162.169 65.4134 162.531 65.4514 162.982L66.0048 162.935C65.9663 162.477 65.9229 162.099 65.8742 161.803L65.3262 161.893ZM65.4507 162.972C65.4721 163.407 65.4428 163.738 65.3748 163.977L65.9089 164.129C66.0001 163.809 66.0284 163.411 66.0054 162.945L65.4507 162.972ZM65.3769 163.97C65.2974 164.223 65.1575 164.501 64.9499 164.806L65.4089 165.118C65.6385 164.781 65.8068 164.454 65.9067 164.136L65.3769 163.97ZM64.9543 164.799C64.7553 165.075 64.4818 165.319 64.1261 165.531L64.4098 166.008C64.8203 165.764 65.1543 165.471 65.4045 165.125L64.9543 164.799ZM64.1261 165.531C63.2722 166.038 62.4407 166.131 61.6091 165.834L61.4222 166.357C62.4257 166.715 63.429 166.591 64.4098 166.008L64.1261 165.531ZM61.6067 165.833C60.7472 165.535 60.0576 164.957 59.5366 164.08L59.0591 164.363C59.64 165.341 60.4289 166.012 61.4247 166.358L61.6067 165.833ZM59.5366 164.08C59.0647 163.285 58.8626 162.489 58.9165 161.685L58.3623 161.648C58.3 162.577 58.5369 163.484 59.0591 164.363L59.5366 164.08ZM58.9166 161.683C58.9656 160.859 59.229 160.107 59.7097 159.423L59.2552 159.104C58.716 159.871 58.4174 160.722 58.3622 161.65L58.9166 161.683ZM59.3465 159.506L60.7276 160.281L60.9994 159.796L59.6184 159.021L59.3465 159.506ZM60.6408 159.873C60.206 160.457 59.9588 161.064 59.9207 161.691C59.8826 162.318 60.0556 162.941 60.42 163.555L60.8975 163.271C60.5791 162.735 60.4449 162.221 60.4751 161.724C60.5053 161.227 60.7018 160.721 61.0863 160.204L60.6408 159.873ZM60.42 163.555C60.7846 164.169 61.2453 164.6 61.8107 164.812L62.0063 164.293C61.588 164.135 61.2155 163.807 60.8975 163.271L60.42 163.555ZM61.8107 164.812C62.3877 165.03 62.9634 164.965 63.5139 164.638L63.2302 164.16C62.813 164.408 62.413 164.446 62.0063 164.293L61.8107 164.812ZM63.5139 164.638C64.0428 164.324 64.3569 163.874 64.4106 163.297L63.8576 163.246C63.8227 163.621 63.6288 163.924 63.2302 164.16L63.5139 164.638ZM64.4106 163.297C64.4593 162.774 64.3608 162.013 64.1368 161.036L63.5954 161.161C63.8174 162.128 63.8976 162.816 63.8576 163.246L64.4106 163.297ZM64.1362 161.034C64.0532 160.688 63.9966 160.444 63.9657 160.303L63.4231 160.421C63.4553 160.569 63.5131 160.817 63.5961 161.163L64.1362 161.034ZM63.9657 160.303C63.9361 160.166 63.8969 159.945 63.8481 159.633L63.2994 159.72C63.3484 160.032 63.3897 160.267 63.4231 160.421L63.9657 160.303ZM63.8475 159.63C63.7929 159.309 63.7617 159.081 63.7513 158.938L63.1974 158.978C63.2097 159.149 63.2448 159.4 63.3 159.723L63.8475 159.63ZM63.7513 158.938C63.7403 158.786 63.7303 158.578 63.7215 158.312L63.1664 158.331C63.1753 158.6 63.1856 158.816 63.1974 158.978L63.7513 158.938ZM63.7212 158.307C63.707 158.041 63.7212 157.854 63.7521 157.733L63.2139 157.596C63.1629 157.796 63.1511 158.047 63.1666 158.336L63.7212 158.307ZM63.7521 157.733C63.7909 157.58 63.8459 157.396 63.918 157.179L63.3909 157.004C63.3162 157.229 63.2569 157.427 63.2139 157.596L63.7521 157.733ZM63.9235 157.16C63.9736 156.964 64.0458 156.813 64.1336 156.698L63.6929 156.36C63.5502 156.546 63.4498 156.77 63.3853 157.023L63.9235 157.16ZM64.1336 156.698C64.2363 156.564 64.3704 156.421 64.5386 156.27L64.1668 155.857C63.9796 156.026 63.8208 156.193 63.6929 156.36L64.1336 156.698ZM64.5506 156.258C64.6936 156.113 64.8659 155.979 65.0695 155.858L64.7859 155.381C64.546 155.523 64.3349 155.686 64.1548 155.869L64.5506 156.258ZM65.0695 155.858C65.9305 155.347 66.7856 155.257 67.6578 155.573L67.8469 155.051C66.8077 154.675 65.7797 154.79 64.7859 155.381L65.0695 155.858ZM67.6554 155.572C68.5277 155.897 69.2792 156.567 69.902 157.615L70.3795 157.331C69.7089 156.202 68.868 155.431 67.8492 155.052L67.6554 155.572Z" fill="#FF5521" mask="url(#path-8-outside-4_1_6375)"/>
<mask id="path-10-outside-5_1_6375" maskUnits="userSpaceOnUse" x="51.1049" y="142.174" width="16.541" height="14.1121" fill="black">
<rect fill="white" x="51.1049" y="142.174" width="16.541" height="14.1121"/>
<path d="M52.0222 147.388L53.4805 146.87L54.7001 150.3L64.8419 146.694L65.3839 148.219L55.2421 151.825L56.4558 155.238L54.9975 155.757L52.0222 147.388Z"/>
</mask>
<path d="M52.0222 147.388L53.4805 146.87L54.7001 150.3L64.8419 146.694L65.3839 148.219L55.2421 151.825L56.4558 155.238L54.9975 155.757L52.0222 147.388Z" fill="#FF5521"/>
<path d="M52.0222 147.388L51.9292 147.126L51.6676 147.22L51.7606 147.481L52.0222 147.388ZM53.4805 146.87L53.7422 146.777L53.6492 146.515L53.3875 146.608L53.4805 146.87ZM54.7001 150.3L54.4385 150.393L54.5315 150.655L54.7931 150.562L54.7001 150.3ZM64.8419 146.694L65.1035 146.601L65.0105 146.34L64.7488 146.433L64.8419 146.694ZM65.3839 148.219L65.4769 148.48L65.7386 148.387L65.6456 148.126L65.3839 148.219ZM55.2421 151.825L55.1491 151.563L54.8875 151.656L54.9805 151.918L55.2421 151.825ZM56.4558 155.238L56.5489 155.5L56.8105 155.407L56.7175 155.145L56.4558 155.238ZM54.9975 155.757L54.7359 155.85L54.8289 156.111L55.0906 156.018L54.9975 155.757ZM52.1153 147.65L53.5736 147.131L53.3875 146.608L51.9292 147.126L52.1153 147.65ZM53.2189 146.963L54.4385 150.393L54.9618 150.207L53.7422 146.777L53.2189 146.963ZM54.7931 150.562L64.9349 146.956L64.7488 146.433L54.6071 150.038L54.7931 150.562ZM64.5802 146.787L65.1222 148.312L65.6456 148.126L65.1035 146.601L64.5802 146.787ZM65.2909 147.957L55.1491 151.563L55.3352 152.086L65.4769 148.48L65.2909 147.957ZM54.9805 151.918L56.1942 155.331L56.7175 155.145L55.5038 151.732L54.9805 151.918ZM56.3628 154.977L54.9045 155.495L55.0906 156.018L56.5489 155.5L56.3628 154.977ZM55.2592 155.664L52.2839 147.295L51.7606 147.481L54.7359 155.85L55.2592 155.664Z" fill="#FF5521" mask="url(#path-10-outside-5_1_6375)"/>
<mask id="path-12-outside-6_1_6375" maskUnits="userSpaceOnUse" x="48.465" y="130.947" width="15.0151" height="9.95201" fill="black">
<rect fill="white" x="48.465" y="130.947" width="15.0151" height="9.95201"/>
<path d="M60.6751 137.298L59.8433 131.643L61.3746 131.418L62.4443 138.691L50.264 140.483L49.207 133.297L50.7383 133.071L51.5572 138.639L55.2983 138.089L54.5433 132.956L56.0572 132.733L56.8121 137.867L60.6751 137.298Z"/>
</mask>
<path d="M60.6751 137.298L59.8433 131.643L61.3746 131.418L62.4443 138.691L50.264 140.483L49.207 133.297L50.7383 133.071L51.5572 138.639L55.2983 138.089L54.5433 132.956L56.0572 132.733L56.8121 137.867L60.6751 137.298Z" fill="#FF5521"/>
<path d="M60.6751 137.298L60.7155 137.573L60.9902 137.533L60.9498 137.258L60.6751 137.298ZM59.8433 131.643L59.8029 131.369L59.5282 131.409L59.5686 131.684L59.8433 131.643ZM61.3746 131.418L61.6493 131.378L61.6089 131.103L61.3341 131.143L61.3746 131.418ZM62.4443 138.691L62.4847 138.966L62.7595 138.926L62.7191 138.651L62.4443 138.691ZM50.264 140.483L49.9892 140.523L50.0296 140.798L50.3044 140.758L50.264 140.483ZM49.207 133.297L49.1666 133.022L48.8919 133.062L48.9323 133.337L49.207 133.297ZM50.7383 133.071L51.013 133.031L50.9726 132.756L50.6978 132.797L50.7383 133.071ZM51.5572 138.639L51.2825 138.68L51.3229 138.955L51.5976 138.914L51.5572 138.639ZM55.2983 138.089L55.3387 138.364L55.6135 138.324L55.5731 138.049L55.2983 138.089ZM54.5433 132.956L54.5029 132.681L54.2282 132.722L54.2686 132.997L54.5433 132.956ZM56.0572 132.733L56.3319 132.693L56.2915 132.418L56.0168 132.459L56.0572 132.733ZM56.8121 137.867L56.5374 137.907L56.5778 138.182L56.8526 138.141L56.8121 137.867ZM60.9498 137.258L60.1181 131.603L59.5686 131.684L60.4003 137.339L60.9498 137.258ZM59.8837 131.918L61.415 131.693L61.3341 131.143L59.8029 131.369L59.8837 131.918ZM61.0998 131.458L62.1696 138.732L62.7191 138.651L61.6493 131.378L61.0998 131.458ZM62.4039 138.417L50.2236 140.208L50.3044 140.758L62.4847 138.966L62.4039 138.417ZM50.5387 140.443L49.4818 133.256L48.9323 133.337L49.9892 140.523L50.5387 140.443ZM49.2474 133.571L50.7787 133.346L50.6978 132.797L49.1666 133.022L49.2474 133.571ZM50.4635 133.112L51.2825 138.68L51.8319 138.599L51.013 133.031L50.4635 133.112ZM51.5976 138.914L55.3387 138.364L55.2579 137.815L51.5168 138.365L51.5976 138.914ZM55.5731 138.049L54.8181 132.916L54.2686 132.997L55.0236 138.13L55.5731 138.049ZM54.5837 133.231L56.0976 133.008L56.0168 132.459L54.5029 132.681L54.5837 133.231ZM55.7824 132.774L56.5374 137.907L57.0869 137.826L56.3319 132.693L55.7824 132.774ZM56.8526 138.141L60.7155 137.573L60.6346 137.024L56.7717 137.592L56.8526 138.141Z" fill="#FF5521" mask="url(#path-12-outside-6_1_6375)"/>
<mask id="path-14-outside-7_1_6375" maskUnits="userSpaceOnUse" x="48.0705" y="114.546" width="14.5644" height="12.6635" fill="black">
<rect fill="white" x="48.0705" y="114.546" width="14.5644" height="12.6635"/>
<path d="M49.0061 121.451C49.0873 119.776 49.7518 118.417 50.9997 117.374C52.2364 116.319 53.7156 115.833 55.4372 115.916C57.1588 116 58.5899 116.627 59.7305 117.797C60.86 118.955 61.3842 120.372 61.3031 122.046L61.0707 126.842L48.7737 126.246L49.0061 121.451ZM59.7572 121.972C59.8179 120.718 59.4284 119.672 58.5886 118.833C57.7488 117.994 56.6731 117.543 55.3614 117.48C54.0498 117.416 52.9354 117.761 52.0185 118.515C51.1016 119.269 50.6127 120.272 50.552 121.525L50.3988 124.688L59.6039 125.134L59.7572 121.972Z"/>
</mask>
<path d="M49.0061 121.451C49.0873 119.776 49.7518 118.417 50.9997 117.374C52.2364 116.319 53.7156 115.833 55.4372 115.916C57.1588 116 58.5899 116.627 59.7305 117.797C60.86 118.955 61.3842 120.372 61.3031 122.046L61.0707 126.842L48.7737 126.246L49.0061 121.451ZM59.7572 121.972C59.8179 120.718 59.4284 119.672 58.5886 118.833C57.7488 117.994 56.6731 117.543 55.3614 117.48C54.0498 117.416 52.9354 117.761 52.0185 118.515C51.1016 119.269 50.6127 120.272 50.552 121.525L50.3988 124.688L59.6039 125.134L59.7572 121.972Z" fill="#FF5521"/>
<path d="M50.9997 117.374L51.1778 117.587L51.1799 117.585L50.9997 117.374ZM59.7305 117.797L59.5316 117.991L59.5317 117.991L59.7305 117.797ZM61.0707 126.842L61.0572 127.12L61.3346 127.133L61.3481 126.856L61.0707 126.842ZM48.7737 126.246L48.4964 126.233L48.4829 126.51L48.7603 126.524L48.7737 126.246ZM58.5886 118.833L58.3923 119.03L58.5886 118.833ZM52.0185 118.515L52.1949 118.73L52.0185 118.515ZM50.3988 124.688L50.1214 124.674L50.108 124.951L50.3854 124.965L50.3988 124.688ZM59.6039 125.134L59.5905 125.411L59.8679 125.424L59.8813 125.147L59.6039 125.134ZM49.2835 121.464C49.361 119.864 49.9915 118.579 51.1778 117.587L50.8216 117.161C49.5121 118.255 48.8135 119.688 48.7287 121.437L49.2835 121.464ZM51.1799 117.585C52.3594 116.579 53.7681 116.113 55.4237 116.194L55.4506 115.639C53.6631 115.552 52.1134 116.059 50.8194 117.163L51.1799 117.585ZM55.4237 116.194C57.0794 116.274 58.4429 116.874 59.5316 117.991L59.9294 117.603C58.7369 116.38 57.2381 115.725 55.4506 115.639L55.4237 116.194ZM59.5317 117.991C60.6052 119.092 61.1033 120.432 61.0257 122.033L61.5804 122.06C61.6652 120.311 61.1149 118.819 59.9293 117.603L59.5317 117.991ZM61.0257 122.033L60.7933 126.829L61.3481 126.856L61.5804 122.06L61.0257 122.033ZM61.0841 126.565L48.7872 125.969L48.7603 126.524L61.0572 127.12L61.0841 126.565ZM49.0511 126.26L49.2835 121.464L48.7287 121.437L48.4964 126.233L49.0511 126.26ZM60.0345 121.985C60.0988 120.659 59.6835 119.535 58.7849 118.637L58.3923 119.03C59.1732 119.81 59.537 120.778 59.4798 121.958L60.0345 121.985ZM58.7849 118.637C57.891 117.744 56.7475 117.269 55.3749 117.202L55.348 117.757C56.5987 117.818 57.6067 118.245 58.3923 119.03L58.7849 118.637ZM55.3749 117.202C54.0022 117.136 52.8182 117.498 51.8421 118.301L52.1949 118.73C53.0527 118.024 54.0973 117.696 55.348 117.757L55.3749 117.202ZM51.8422 118.301C50.8609 119.107 50.3389 120.186 50.2746 121.512L50.8294 121.539C50.8866 120.359 51.3422 119.431 52.1949 118.73L51.8422 118.301ZM50.2746 121.512L50.1214 124.674L50.6762 124.701L50.8294 121.539L50.2746 121.512ZM50.3854 124.965L59.5905 125.411L59.6174 124.856L50.4122 124.41L50.3854 124.965ZM59.8813 125.147L60.0345 121.985L59.4798 121.958L59.3266 125.12L59.8813 125.147Z" fill="#FF5521" mask="url(#path-14-outside-7_1_6375)"/>
<mask id="path-16-outside-8_1_6375" maskUnits="userSpaceOnUse" x="51.2161" y="94.7182" width="16.5339" height="14.0972" fill="black">
<rect fill="white" x="51.2161" y="94.7182" width="16.5339" height="14.0972"/>
<path d="M59.906 99.4193C60.3479 98.9787 60.8613 98.6878 61.4461 98.5464C62.0349 98.3941 62.6387 98.4274 63.2577 98.6464C64.1862 98.9749 64.8501 99.5768 65.2494 100.452C65.6487 101.327 65.6822 102.234 65.3497 103.174L63.578 108.181L51.9717 104.074L53.6144 99.4319C53.9351 98.5255 54.5109 97.8648 55.3418 97.4499C56.1727 97.035 57.0358 96.9859 57.9311 97.3027C58.9591 97.6664 59.6174 98.372 59.906 99.4193ZM55.0569 99.9423L53.9598 103.043L57.508 104.298L58.6051 101.198C58.7772 100.711 58.7505 100.242 58.5252 99.789C58.2999 99.3361 57.9385 99.0217 57.4411 98.8457C56.9548 98.6736 56.4796 98.6983 56.0157 98.9197C55.5447 99.1261 55.2251 99.467 55.0569 99.9423ZM63.9072 102.663C64.091 102.144 64.0631 101.643 63.8235 101.16C63.5839 100.677 63.1988 100.342 62.6683 100.154C62.1487 99.9704 61.6421 99.9963 61.1482 100.232C60.6583 100.457 60.3234 100.823 60.1435 101.332L58.9173 104.797L62.6811 106.129L63.9072 102.663Z"/>
</mask>
<path d="M59.906 99.4193C60.3479 98.9787 60.8613 98.6878 61.4461 98.5464C62.0349 98.3941 62.6387 98.4274 63.2577 98.6464C64.1862 98.9749 64.8501 99.5768 65.2494 100.452C65.6487 101.327 65.6822 102.234 65.3497 103.174L63.578 108.181L51.9717 104.074L53.6144 99.4319C53.9351 98.5255 54.5109 97.8648 55.3418 97.4499C56.1727 97.035 57.0358 96.9859 57.9311 97.3027C58.9591 97.6664 59.6174 98.372 59.906 99.4193ZM55.0569 99.9423L53.9598 103.043L57.508 104.298L58.6051 101.198C58.7772 100.711 58.7505 100.242 58.5252 99.789C58.2999 99.3361 57.9385 99.0217 57.4411 98.8457C56.9548 98.6736 56.4796 98.6983 56.0157 98.9197C55.5447 99.1261 55.2251 99.467 55.0569 99.9423ZM63.9072 102.663C64.091 102.144 64.0631 101.643 63.8235 101.16C63.5839 100.677 63.1988 100.342 62.6683 100.154C62.1487 99.9704 61.6421 99.9963 61.1482 100.232C60.6583 100.457 60.3234 100.823 60.1435 101.332L58.9173 104.797L62.6811 106.129L63.9072 102.663Z" fill="#FF5521"/>
<path d="M59.906 99.4193L59.6383 99.4931L59.7648 99.9522L60.102 99.616L59.906 99.4193ZM61.4461 98.5464L61.5114 98.8164L61.5157 98.8153L61.4461 98.5464ZM63.578 108.181L63.4853 108.443L63.7471 108.536L63.8398 108.274L63.578 108.181ZM51.9717 104.074L51.7099 103.982L51.6173 104.244L51.8791 104.336L51.9717 104.074ZM55.3418 97.4499L55.2177 97.2015L55.2177 97.2015L55.3418 97.4499ZM53.9598 103.043L53.698 102.95L53.6054 103.212L53.8672 103.305L53.9598 103.043ZM57.508 104.298L57.4154 104.56L57.6772 104.653L57.7698 104.391L57.508 104.298ZM58.5252 99.789L58.7738 99.6653L58.5252 99.789ZM56.0157 98.9197L56.1273 99.1741L56.1353 99.1703L56.0157 98.9197ZM63.8235 101.16L64.0723 101.037L63.8235 101.16ZM61.1482 100.232L61.264 100.484L61.2678 100.483L61.1482 100.232ZM58.9173 104.797L58.6555 104.704L58.5629 104.966L58.8247 105.059L58.9173 104.797ZM62.6811 106.129L62.5884 106.391L62.8502 106.483L62.9429 106.221L62.6811 106.129ZM60.102 99.616C60.5093 99.2099 60.978 98.9453 61.5114 98.8164L61.3809 98.2765C60.7447 98.4302 60.1865 98.7475 59.7099 99.2227L60.102 99.616ZM61.5157 98.8153C62.0466 98.6779 62.5939 98.7061 63.1651 98.9082L63.3504 98.3846C62.6836 98.1487 62.0232 98.1102 61.3766 98.2776L61.5157 98.8153ZM63.1651 98.9082C64.0245 99.2123 64.6296 99.7624 64.9968 100.567L65.5021 100.337C65.0707 99.3911 64.348 98.7376 63.3504 98.3846L63.1651 98.9082ZM64.9968 100.567C65.365 101.374 65.3973 102.207 65.0879 103.081L65.6115 103.266C65.967 102.262 65.9324 101.28 65.5021 100.337L64.9968 100.567ZM65.0879 103.081L63.3162 108.088L63.8398 108.274L65.6115 103.266L65.0879 103.081ZM63.6706 107.919L52.0643 103.813L51.8791 104.336L63.4853 108.443L63.6706 107.919ZM52.2335 104.167L53.8762 99.5245L53.3526 99.3393L51.7099 103.982L52.2335 104.167ZM53.8762 99.5245C54.1738 98.6833 54.7018 98.0799 55.4659 97.6983L55.2177 97.2015C54.32 97.6498 53.6964 98.3677 53.3526 99.3393L53.8762 99.5245ZM55.4659 97.6983C56.2276 97.3179 57.0124 97.2722 57.8385 97.5645L58.0237 97.0409C57.0592 96.6996 56.1177 96.752 55.2177 97.2015L55.4659 97.6983ZM57.8385 97.5645C58.7813 97.8981 59.3739 98.5337 59.6383 99.4931L60.1737 99.3456C59.8609 98.2103 59.1369 97.4348 58.0237 97.0409L57.8385 97.5645ZM54.7951 99.8497L53.698 102.95L54.2216 103.135L55.3187 100.035L54.7951 99.8497ZM53.8672 103.305L57.4154 104.56L57.6006 104.037L54.0524 102.781L53.8672 103.305ZM57.7698 104.391L58.8669 101.29L58.3433 101.105L57.2462 104.206L57.7698 104.391ZM58.8669 101.29C59.0635 100.735 59.0334 100.187 58.7738 99.6653L58.2766 99.9127C58.4677 100.297 58.4908 100.688 58.3433 101.105L58.8669 101.29ZM58.7738 99.6653C58.5149 99.1449 58.0959 98.7828 57.5337 98.5839L57.3485 99.1075C57.7812 99.2606 58.0849 99.5274 58.2766 99.9127L58.7738 99.6653ZM57.5337 98.5839C56.9782 98.3873 56.4268 98.4158 55.8961 98.6691L56.1353 99.1703C56.5325 98.9807 56.9313 98.9599 57.3485 99.1075L57.5337 98.5839ZM55.9042 98.6653C55.3645 98.9019 54.9894 99.3004 54.7951 99.8497L55.3187 100.035C55.4607 99.6336 55.7248 99.3504 56.1272 99.174L55.9042 98.6653ZM64.169 102.756C64.3773 102.168 64.3461 101.588 64.0723 101.037L63.5748 101.283C63.7802 101.697 63.8048 102.12 63.6454 102.571L64.169 102.756ZM64.0723 101.037C63.799 100.486 63.3562 100.103 62.7609 99.8924L62.5756 100.416C63.0415 100.581 63.3688 100.868 63.5748 101.283L64.0723 101.037ZM62.7609 99.8924C62.1725 99.6842 61.5894 99.7137 61.0286 99.9814L61.2678 100.483C61.6947 100.279 62.125 100.257 62.5756 100.416L62.7609 99.8924ZM61.0325 99.9796C60.4742 100.236 60.0866 100.66 59.8817 101.239L60.4053 101.424C60.5601 100.987 60.8424 100.678 61.264 100.484L61.0325 99.9796ZM59.8817 101.239L58.6555 104.704L59.1791 104.89L60.4053 101.424L59.8817 101.239ZM58.8247 105.059L62.5884 106.391L62.7737 105.867L59.01 104.535L58.8247 105.059ZM62.9429 106.221L64.169 102.756L63.6454 102.571L62.4193 106.036L62.9429 106.221Z" fill="#FF5521" mask="url(#path-16-outside-8_1_6375)"/>
<mask id="path-18-outside-9_1_6375" maskUnits="userSpaceOnUse" x="55.2575" y="82.7017" width="18.1604" height="17.4582" fill="black">
<rect fill="white" x="55.2575" y="82.7017" width="18.1604" height="17.4582"/>
<path d="M61.6996 83.498L65.7885 90.9876L70.0715 93.5232L69.2383 94.9307L64.9401 92.3861L56.4312 92.397L57.363 90.823L64.0294 90.8864L60.7677 85.072L61.6996 83.498Z"/>
</mask>
<path d="M61.6996 83.498L65.7885 90.9876L70.0715 93.5232L69.2383 94.9307L64.9401 92.3861L56.4312 92.397L57.363 90.823L64.0294 90.8864L60.7677 85.072L61.6996 83.498Z" fill="#FF5521"/>
<path d="M61.6996 83.498L61.9433 83.365L61.7093 82.9364L61.4606 83.3566L61.6996 83.498ZM65.7885 90.9876L65.5448 91.1207L65.5814 91.1877L65.647 91.2266L65.7885 90.9876ZM70.0715 93.5232L70.3105 93.6647L70.452 93.4258L70.213 93.2843L70.0715 93.5232ZM69.2383 94.9307L69.0968 95.1697L69.3357 95.3112L69.4772 95.0722L69.2383 94.9307ZM64.9401 92.3861L65.0816 92.1472L65.016 92.1083L64.9398 92.1084L64.9401 92.3861ZM56.4312 92.397L56.1922 92.2555L55.9437 92.6753L56.4315 92.6747L56.4312 92.397ZM57.363 90.823L57.3656 90.5453L57.2056 90.5438L57.124 90.6816L57.363 90.823ZM64.0294 90.8864L64.0268 91.164L64.5061 91.1686L64.2716 90.7505L64.0294 90.8864ZM60.7677 85.072L60.5288 84.9305L60.4472 85.0683L60.5255 85.2079L60.7677 85.072ZM61.4558 83.6311L65.5448 91.1207L66.0323 90.8545L61.9433 83.365L61.4558 83.6311ZM65.647 91.2266L69.9301 93.7622L70.213 93.2843L65.93 90.7486L65.647 91.2266ZM69.8326 93.3818L68.9993 94.7893L69.4772 95.0722L70.3105 93.6647L69.8326 93.3818ZM69.3797 94.6918L65.0816 92.1472L64.7986 92.6251L69.0968 95.1697L69.3797 94.6918ZM64.9398 92.1084L56.4308 92.1193L56.4315 92.6747L64.9405 92.6638L64.9398 92.1084ZM56.6701 92.5385L57.6019 90.9645L57.124 90.6816L56.1922 92.2555L56.6701 92.5385ZM57.3603 91.1007L64.0268 91.164L64.032 90.6087L57.3656 90.5453L57.3603 91.1007ZM64.2716 90.7505L61.0099 84.9361L60.5255 85.2079L63.7872 91.0222L64.2716 90.7505ZM61.0067 85.2135L61.9385 83.6395L61.4606 83.3566L60.5288 84.9305L61.0067 85.2135Z" fill="#FF5521" mask="url(#path-18-outside-9_1_6375)"/>
<mask id="path-20-outside-10_1_6375" maskUnits="userSpaceOnUse" x="69.4426" y="63.5341" width="19.7522" height="19.7522" fill="black">
<rect fill="white" x="69.4426" y="63.5341" width="19.7522" height="19.7522"/>
<path d="M85.6201 73.7089C85.5082 75.4547 84.7804 76.913 83.4366 78.0837C82.0928 79.2543 80.5485 79.7755 78.8038 79.647C77.0592 79.5186 75.6053 78.7869 74.4424 77.4519C73.2717 76.1081 72.7461 74.5677 72.8657 72.8307C72.9776 71.0849 73.7055 69.6267 75.0493 68.456C76.3931 67.2853 77.9373 66.7642 79.682 66.8926C81.4278 67.0045 82.8861 67.7324 84.0568 69.0762C85.2197 70.4111 85.7409 71.9554 85.6201 73.7089ZM78.9247 78.0722C80.2151 78.161 81.3686 77.7626 82.3853 76.8769C83.402 75.9912 83.9503 74.907 84.0303 73.6244C84.1115 72.3252 83.7092 71.1673 82.8235 70.1506C81.9301 69.125 80.8382 68.5679 79.5479 68.479C78.2587 68.3736 77.1057 68.7638 76.089 69.6495C75.0723 70.5352 74.5234 71.6276 74.4423 72.9268C74.3623 74.2094 74.769 75.3635 75.6624 76.3891C76.5481 77.4058 77.6355 77.9668 78.9247 78.0722Z"/>
</mask>
<path d="M85.6201 73.7089C85.5082 75.4547 84.7804 76.913 83.4366 78.0837C82.0928 79.2543 80.5485 79.7755 78.8038 79.647C77.0592 79.5186 75.6053 78.7869 74.4424 77.4519C73.2717 76.1081 72.7461 74.5677 72.8657 72.8307C72.9776 71.0849 73.7055 69.6267 75.0493 68.456C76.3931 67.2853 77.9373 66.7642 79.682 66.8926C81.4278 67.0045 82.8861 67.7324 84.0568 69.0762C85.2197 70.4111 85.7409 71.9554 85.6201 73.7089ZM78.9247 78.0722C80.2151 78.161 81.3686 77.7626 82.3853 76.8769C83.402 75.9912 83.9503 74.907 84.0303 73.6244C84.1115 72.3252 83.7092 71.1673 82.8235 70.1506C81.9301 69.125 80.8382 68.5679 79.5479 68.479C78.2587 68.3736 77.1057 68.7638 76.089 69.6495C75.0723 70.5352 74.5234 71.6276 74.4423 72.9268C74.3623 74.2094 74.769 75.3635 75.6624 76.3891C76.5481 77.4058 77.6355 77.9668 78.9247 78.0722Z" fill="#FF5521"/>
<path d="M85.6201 73.7089L85.3431 73.6898L85.343 73.6911L85.6201 73.7089ZM78.8038 79.647L78.7834 79.924L78.8038 79.647ZM72.8657 72.8307L73.1428 72.8498L73.1429 72.8485L72.8657 72.8307ZM79.682 66.8926L79.6616 67.1696L79.6643 67.1698L79.682 66.8926ZM78.9247 78.0722L78.9021 78.349L78.9057 78.3492L78.9247 78.0722ZM84.0303 73.6244L83.7532 73.6071L83.7532 73.6071L84.0303 73.6244ZM79.5479 68.479L79.5252 68.7558L79.5288 68.7561L79.5479 68.479ZM74.4423 72.9268L74.1651 72.9095L74.1651 72.9095L74.4423 72.9268ZM85.343 73.6911C85.2359 75.3615 84.5433 76.7512 83.2542 77.8743L83.619 78.293C85.0175 77.0747 85.7805 75.548 85.8973 73.7267L85.343 73.6911ZM83.2542 77.8743C81.9651 78.9973 80.4935 79.4929 78.8242 79.3701L78.7834 79.924C80.6036 80.058 82.2205 79.5114 83.619 78.293L83.2542 77.8743ZM78.8242 79.3701C77.1535 79.2471 75.7673 78.55 74.6517 77.2695L74.233 77.6343C75.4434 79.0237 76.9648 79.7901 78.7834 79.924L78.8242 79.3701ZM74.6517 77.2695C73.5282 75.9798 73.0284 74.5114 73.1428 72.8498L72.5887 72.8117C72.4639 74.624 73.0152 76.2364 74.233 77.6343L74.6517 77.2695ZM73.1429 72.8485C73.2499 71.1782 73.9426 69.7884 75.2317 68.6654L74.8669 68.2466C73.4684 69.4649 72.7053 70.9916 72.5886 72.813L73.1429 72.8485ZM75.2317 68.6654C76.5208 67.5423 77.9924 67.0467 79.6616 67.1696L79.7024 66.6157C77.8823 66.4817 76.2654 67.0283 74.8669 68.2466L75.2317 68.6654ZM79.6643 67.1698C81.3346 67.2768 82.7244 67.9695 83.8474 69.2586L84.2662 68.8938C83.0478 67.4953 81.5211 66.7322 79.6998 66.6155L79.6643 67.1698ZM83.8474 69.2586C84.9624 70.5385 85.4587 72.0104 85.3431 73.6898L85.8972 73.728C86.023 71.9004 85.4771 70.2838 84.2662 68.8938L83.8474 69.2586ZM78.9057 78.3492C80.2729 78.4434 81.4981 78.0181 82.5677 77.0863L82.2029 76.6675C81.2391 77.5071 80.1572 77.8787 78.9438 77.7951L78.9057 78.3492ZM82.5677 77.0863C83.6373 76.1545 84.2226 75.0024 84.3075 73.6417L83.7532 73.6071C83.678 74.8116 83.1666 75.8279 82.2029 76.6675L82.5677 77.0863ZM84.3075 73.6417C84.3934 72.2668 83.9646 71.0377 83.0329 69.9682L82.6141 70.333C83.4537 71.2968 83.8296 72.3837 83.7532 73.6071L84.3075 73.6417ZM83.0329 69.9682C82.0938 68.8903 80.9349 68.2962 79.5669 68.202L79.5288 68.7561C80.7415 68.8396 81.7663 69.3598 82.6141 70.333L83.0329 69.9682ZM79.5705 68.2022C78.2032 68.0905 76.9771 68.5075 75.9066 69.4401L76.2714 69.8589C77.2344 69.02 78.3142 68.6568 79.5252 68.7558L79.5705 68.2022ZM75.9066 69.4401C74.8362 70.3726 74.2511 71.5333 74.1651 72.9095L74.7194 72.9441C74.7958 71.722 75.3085 70.6978 76.2714 69.8589L75.9066 69.4401ZM74.1651 72.9095C74.0803 74.2696 74.5147 75.4944 75.453 76.5715L75.8718 76.2066C75.0232 75.2326 74.6443 74.1493 74.7194 72.9441L74.1651 72.9095ZM75.453 76.5715C76.384 77.6402 77.5374 78.2374 78.9021 78.349L78.9474 77.7954C77.7337 77.6962 76.7122 77.1713 75.8718 76.2066L75.453 76.5715Z" fill="#FF5521" mask="url(#path-20-outside-10_1_6375)"/>
<mask id="path-22-outside-11_1_6375" maskUnits="userSpaceOnUse" x="81.6499" y="56.307" width="18.0786" height="18.4861" fill="black">
<rect fill="white" x="81.6499" y="56.307" width="18.0786" height="18.4861"/>
<path d="M92.682 71.2908L82.9807 62.5278L84.5299 61.6952L92.5372 69.0524L90.8042 58.3232L92.3689 57.4822L94.3086 70.4165L92.682 71.2908Z"/>
</mask>
<path d="M92.682 71.2908L82.9807 62.5278L84.5299 61.6952L92.5372 69.0524L90.8042 58.3232L92.3689 57.4822L94.3086 70.4165L92.682 71.2908Z" fill="#FF5521"/>
<path d="M92.682 71.2908L92.4958 71.4968L92.6411 71.628L92.8135 71.5354L92.682 71.2908ZM82.9807 62.5278L82.8493 62.2832L82.5022 62.4698L82.7946 62.7339L82.9807 62.5278ZM84.5299 61.6952L84.7178 61.4908L84.5724 61.3571L84.3985 61.4506L84.5299 61.6952ZM92.5372 69.0524L92.3494 69.2569L92.9391 69.7987L92.8114 69.0081L92.5372 69.0524ZM90.8042 58.3232L90.6727 58.0786L90.4985 58.1722L90.5301 58.3675L90.8042 58.3232ZM92.3689 57.4822L92.6435 57.4411L92.585 57.0508L92.2374 57.2376L92.3689 57.4822ZM94.3086 70.4165L94.4401 70.6611L94.6123 70.5686L94.5833 70.3753L94.3086 70.4165ZM92.8681 71.0847L83.1669 62.3218L82.7946 62.7339L92.4958 71.4968L92.8681 71.0847ZM83.1122 62.7725L84.6614 61.9399L84.3985 61.4506L82.8493 62.2832L83.1122 62.7725ZM84.342 61.8997L92.3494 69.2569L92.7251 68.8479L84.7178 61.4908L84.342 61.8997ZM92.8114 69.0081L91.0783 58.2789L90.5301 58.3675L92.2631 69.0967L92.8114 69.0081ZM90.9357 58.5678L92.5004 57.7269L92.2374 57.2376L90.6727 58.0786L90.9357 58.5678ZM92.0943 57.5234L94.034 70.4577L94.5833 70.3753L92.6435 57.4411L92.0943 57.5234ZM94.1772 70.1719L92.5505 71.0461L92.8135 71.5354L94.4401 70.6611L94.1772 70.1719Z" fill="#FF5521" mask="url(#path-22-outside-11_1_6375)"/>
<mask id="path-24-outside-12_1_6375" maskUnits="userSpaceOnUse" x="98.3876" y="52.0297" width="11.6293" height="15.6898" fill="black">
<rect fill="white" x="98.3876" y="52.0297" width="11.6293" height="15.6898"/>
<path d="M103.498 64.7233L108.981 63.1085L109.418 64.5931L102.366 66.6701L98.8882 54.8602L105.856 52.8081L106.293 54.2928L100.894 55.8828L101.963 59.5101L106.94 58.0443L107.372 59.5121L102.395 60.9779L103.498 64.7233Z"/>
</mask>
<path d="M103.498 64.7233L108.981 63.1085L109.418 64.5931L102.366 66.6701L98.8882 54.8602L105.856 52.8081L106.293 54.2928L100.894 55.8828L101.963 59.5101L106.94 58.0443L107.372 59.5121L102.395 60.9779L103.498 64.7233Z" fill="#FF5521"/>
<path d="M103.498 64.7233L103.232 64.8017L103.31 65.0681L103.577 64.9897L103.498 64.7233ZM108.981 63.1085L109.248 63.03L109.169 62.7636L108.903 62.8421L108.981 63.1085ZM109.418 64.5931L109.497 64.8595L109.763 64.7811L109.685 64.5147L109.418 64.5931ZM102.366 66.6701L102.1 66.7485L102.178 67.0149L102.445 66.9364L102.366 66.6701ZM98.8882 54.8602L98.8097 54.5938L98.5433 54.6723L98.6218 54.9386L98.8882 54.8602ZM105.856 52.8081L106.122 52.7297L106.044 52.4633L105.778 52.5417L105.856 52.8081ZM106.293 54.2928L106.372 54.5592L106.638 54.4807L106.56 54.2143L106.293 54.2928ZM100.894 55.8828L100.816 55.6164L100.55 55.6948L100.628 55.9612L100.894 55.8828ZM101.963 59.5101L101.696 59.5885L101.775 59.8549L102.041 59.7765L101.963 59.5101ZM106.94 58.0443L107.206 57.9659L107.128 57.6995L106.861 57.7779L106.94 58.0443ZM107.372 59.5121L107.45 59.7785L107.717 59.7L107.638 59.4337L107.372 59.5121ZM102.395 60.9779L102.317 60.7115L102.05 60.7899L102.129 61.0563L102.395 60.9779ZM103.577 64.9897L109.06 63.3748L108.903 62.8421L103.42 64.4569L103.577 64.9897ZM108.715 63.1869L109.152 64.6716L109.685 64.5147L109.248 63.03L108.715 63.1869ZM109.34 64.3267L102.288 66.4037L102.445 66.9364L109.497 64.8595L109.34 64.3267ZM102.633 66.5916L99.1546 54.7817L98.6218 54.9386L102.1 66.7485L102.633 66.5916ZM98.9666 55.1266L105.934 53.0745L105.778 52.5417L98.8097 54.5938L98.9666 55.1266ZM105.59 52.8866L106.027 54.3712L106.56 54.2143L106.122 52.7297L105.59 52.8866ZM106.215 54.0264L100.816 55.6164L100.973 56.1492L106.372 54.5592L106.215 54.0264ZM100.628 55.9612L101.696 59.5885L102.229 59.4316L101.161 55.8043L100.628 55.9612ZM102.041 59.7765L107.018 58.3107L106.861 57.7779L101.884 59.2437L102.041 59.7765ZM106.673 58.1228L107.106 59.5906L107.638 59.4337L107.206 57.9659L106.673 58.1228ZM107.294 59.2457L102.317 60.7115L102.473 61.2443L107.45 59.7785L107.294 59.2457ZM102.129 61.0563L103.232 64.8017L103.764 64.6448L102.661 60.8994L102.129 61.0563Z" fill="#FF5521" mask="url(#path-24-outside-12_1_6375)"/>
<mask id="path-26-outside-13_1_6375" maskUnits="userSpaceOnUse" x="112.395" y="49.819" width="11.2434" height="14.8592" fill="black">
<rect fill="white" x="112.395" y="49.819" width="11.2434" height="14.8592"/>
<path d="M121.175 62.9828L117.992 58.5428L115.103 58.8093L115.536 63.5029L113.907 63.6531L112.776 51.3938L117.68 50.9415C118.731 50.8446 119.664 51.1353 120.48 51.8136C121.295 52.4803 121.751 53.339 121.848 54.3898C121.922 55.1838 121.749 55.9297 121.331 56.6277C120.924 57.3246 120.359 57.8418 119.637 58.1792L122.979 62.8165L121.175 62.9828ZM114.545 52.7672L114.967 57.3382L118.242 57.0362C118.849 56.9802 119.342 56.711 119.722 56.2285C120.112 55.7333 120.278 55.1705 120.22 54.54C120.161 53.9095 119.896 53.3924 119.423 52.9886C118.962 52.5837 118.428 52.4092 117.82 52.4652L114.545 52.7672Z"/>
</mask>
<path d="M121.175 62.9828L117.992 58.5428L115.103 58.8093L115.536 63.5029L113.907 63.6531L112.776 51.3938L117.68 50.9415C118.731 50.8446 119.664 51.1353 120.48 51.8136C121.295 52.4803 121.751 53.339 121.848 54.3898C121.922 55.1838 121.749 55.9297 121.331 56.6277C120.924 57.3246 120.359 57.8418 119.637 58.1792L122.979 62.8165L121.175 62.9828ZM114.545 52.7672L114.967 57.3382L118.242 57.0362C118.849 56.9802 119.342 56.711 119.722 56.2285C120.112 55.7333 120.278 55.1705 120.22 54.54C120.161 53.9095 119.896 53.3924 119.423 52.9886C118.962 52.5837 118.428 52.4092 117.82 52.4652L114.545 52.7672Z" fill="#FF5521"/>
<path d="M121.175 62.9828L120.949 63.1446L121.042 63.274L121.2 63.2594L121.175 62.9828ZM117.992 58.5428L118.218 58.381L118.125 58.2517L117.967 58.2663L117.992 58.5428ZM115.103 58.8093L115.077 58.5328L114.801 58.5583L114.826 58.8348L115.103 58.8093ZM115.536 63.5029L115.561 63.7794L115.838 63.7539L115.812 63.4774L115.536 63.5029ZM113.907 63.6531L113.63 63.6786L113.656 63.9552L113.932 63.9297L113.907 63.6531ZM112.776 51.3938L112.751 51.1172L112.474 51.1427L112.5 51.4193L112.776 51.3938ZM120.48 51.8136L120.303 52.0272L120.305 52.0286L120.48 51.8136ZM121.331 56.6277L121.092 56.4849L121.091 56.4877L121.331 56.6277ZM119.637 58.1792L119.519 57.9276L119.215 58.0695L119.412 58.3416L119.637 58.1792ZM122.979 62.8165L123.004 63.093L123.488 63.0484L123.204 62.6541L122.979 62.8165ZM114.545 52.7672L114.52 52.4907L114.243 52.5162L114.269 52.7927L114.545 52.7672ZM114.967 57.3382L114.691 57.3637L114.716 57.6402L114.993 57.6147L114.967 57.3382ZM119.722 56.2285L119.504 56.0567L119.504 56.0569L119.722 56.2285ZM119.423 52.9886L119.24 53.1973L119.243 53.1997L119.423 52.9886ZM121.401 62.8211L118.218 58.381L117.767 58.7046L120.949 63.1446L121.401 62.8211ZM117.967 58.2663L115.077 58.5328L115.128 59.0859L118.018 58.8194L117.967 58.2663ZM114.826 58.8348L115.259 63.5284L115.812 63.4774L115.379 58.7838L114.826 58.8348ZM115.51 63.2264L113.881 63.3766L113.932 63.9297L115.561 63.7794L115.51 63.2264ZM114.183 63.6276L113.053 51.3683L112.5 51.4193L113.63 63.6786L114.183 63.6276ZM112.802 51.6703L117.705 51.2181L117.654 50.665L112.751 51.1172L112.802 51.6703ZM117.705 51.2181C118.682 51.1279 119.543 51.3957 120.303 52.0272L120.658 51.6001C119.785 50.875 118.779 50.5613 117.654 50.665L117.705 51.2181ZM120.305 52.0286C121.062 52.648 121.482 53.4384 121.572 54.4153L122.125 54.3643C122.021 53.2396 121.529 52.3126 120.656 51.5987L120.305 52.0286ZM121.572 54.4153C121.64 55.1492 121.481 55.8364 121.092 56.4849L121.569 56.7705C122.017 56.023 122.204 55.2183 122.125 54.3643L121.572 54.4153ZM121.091 56.4877C120.712 57.1365 120.19 57.6144 119.519 57.9276L119.754 58.4308C120.529 58.0692 121.136 57.5127 121.57 56.7677L121.091 56.4877ZM119.412 58.3416L122.753 62.9788L123.204 62.6541L119.862 58.0169L119.412 58.3416ZM122.953 62.5399L121.149 62.7063L121.2 63.2594L123.004 63.093L122.953 62.5399ZM114.269 52.7927L114.691 57.3637L115.244 57.3127L114.822 52.7417L114.269 52.7927ZM114.993 57.6147L118.268 57.3127L118.217 56.7596L114.942 57.0617L114.993 57.6147ZM118.268 57.3127C118.951 57.2497 119.514 56.9421 119.94 56.4002L119.504 56.0569C119.171 56.4798 118.747 56.7107 118.217 56.7596L118.268 57.3127ZM119.94 56.4004C120.374 55.849 120.561 55.2155 120.496 54.5145L119.943 54.5655C119.995 55.1255 119.849 55.6177 119.504 56.0567L119.94 56.4004ZM120.496 54.5145C120.432 53.8134 120.132 53.2291 119.603 52.7774L119.243 53.1997C119.659 53.5556 119.891 54.0057 119.943 54.5655L120.496 54.5145ZM119.606 52.7799C119.088 52.325 118.479 52.1256 117.795 52.1887L117.846 52.7417C118.377 52.6928 118.835 52.8423 119.24 53.1973L119.606 52.7799ZM117.795 52.1887L114.52 52.4907L114.571 53.0437L117.846 52.7417L117.795 52.1887Z" fill="#FF5521" mask="url(#path-26-outside-13_1_6375)"/>
<mask id="path-28-outside-14_1_6375" maskUnits="userSpaceOnUse" x="130.119" y="50.3958" width="9.10595" height="14.9234" fill="black">
<rect fill="white" x="130.119" y="50.3958" width="9.10595" height="14.9234"/>
<path d="M136.631 51.7778L138.02 51.9981L136.092 64.1576L134.494 63.9042L136.147 53.4818L133.437 53.8358L133.258 52.3828L136.631 51.7778Z"/>
</mask>
<path d="M136.631 51.7778L138.02 51.9981L136.092 64.1576L134.494 63.9042L136.147 53.4818L133.437 53.8358L133.258 52.3828L136.631 51.7778Z" fill="#FF5521"/>
<path d="M136.631 51.7778L136.674 51.5035L136.628 51.4962L136.582 51.5045L136.631 51.7778ZM138.02 51.9981L138.295 52.0416L138.338 51.7673L138.064 51.7238L138.02 51.9981ZM136.092 64.1576L136.049 64.4319L136.323 64.4754L136.367 64.2011L136.092 64.1576ZM134.494 63.9042L134.22 63.8608L134.177 64.135L134.451 64.1785L134.494 63.9042ZM136.147 53.4818L136.421 53.5253L136.479 53.1583L136.111 53.2065L136.147 53.4818ZM133.437 53.8358L133.162 53.8698L133.196 54.1474L133.473 54.1111L133.437 53.8358ZM133.258 52.3828L133.209 52.1094L132.95 52.1558L132.983 52.4168L133.258 52.3828ZM136.587 52.0521L137.977 52.2724L138.064 51.7238L136.674 51.5035L136.587 52.0521ZM137.746 51.9546L135.818 64.1141L136.367 64.2011L138.295 52.0416L137.746 51.9546ZM136.136 63.8833L134.538 63.63L134.451 64.1785L136.049 64.4319L136.136 63.8833ZM134.769 63.9477L136.421 53.5253L135.873 53.4383L134.22 63.8608L134.769 63.9477ZM136.111 53.2065L133.401 53.5604L133.473 54.1111L136.183 53.7572L136.111 53.2065ZM133.713 53.8018L133.534 52.3488L132.983 52.4168L133.162 53.8698L133.713 53.8018ZM133.307 52.6561L136.68 52.0511L136.582 51.5045L133.209 52.1094L133.307 52.6561Z" fill="#FF5521" mask="url(#path-28-outside-14_1_6375)"/>
<mask id="path-30-outside-15_1_6375" maskUnits="userSpaceOnUse" x="136.95" y="51.8104" width="14.5348" height="16.555" fill="black">
<rect fill="white" x="136.95" y="51.8104" width="14.5348" height="16.555"/>
<path d="M146.331 65.3984C145.203 66.2737 143.919 66.4974 142.48 66.0695C141.042 65.6416 140.089 64.7527 139.622 63.4027C139.155 62.0528 139.197 60.4506 139.749 58.5963C140.3 56.7419 141.141 55.3771 142.269 54.5018C143.398 53.6266 144.682 53.4029 146.121 53.8307C147.559 54.2586 148.512 55.1475 148.979 56.4975C149.446 57.8474 149.404 59.4496 148.852 61.3039C148.3 63.1583 147.46 64.5231 146.331 65.3984ZM141.084 62.6817C141.364 63.6334 141.981 64.2513 142.937 64.5354C143.892 64.8196 144.747 64.6395 145.501 63.9954C146.267 63.3545 146.867 62.3036 147.301 60.8426C147.736 59.3816 147.808 58.1736 147.517 57.2185C147.24 56.2556 146.625 55.6321 145.669 55.3479C144.714 55.0638 143.859 55.2438 143.105 55.888C142.351 56.5321 141.755 57.5903 141.317 59.0626C140.882 60.5236 140.805 61.73 141.084 62.6817Z"/>
</mask>
<path d="M146.331 65.3984C145.203 66.2737 143.919 66.4974 142.48 66.0695C141.042 65.6416 140.089 64.7527 139.622 63.4027C139.155 62.0528 139.197 60.4506 139.749 58.5963C140.3 56.7419 141.141 55.3771 142.269 54.5018C143.398 53.6266 144.682 53.4029 146.121 53.8307C147.559 54.2586 148.512 55.1475 148.979 56.4975C149.446 57.8474 149.404 59.4496 148.852 61.3039C148.3 63.1583 147.46 64.5231 146.331 65.3984ZM141.084 62.6817C141.364 63.6334 141.981 64.2513 142.937 64.5354C143.892 64.8196 144.747 64.6395 145.501 63.9954C146.267 63.3545 146.867 62.3036 147.301 60.8426C147.736 59.3816 147.808 58.1736 147.517 57.2185C147.24 56.2556 146.625 55.6321 145.669 55.3479C144.714 55.0638 143.859 55.2438 143.105 55.888C142.351 56.5321 141.755 57.5903 141.317 59.0626C140.882 60.5236 140.805 61.73 141.084 62.6817Z" fill="#FF5521"/>
<path d="M146.331 65.3984L146.161 65.1789L146.161 65.1789L146.331 65.3984ZM139.622 63.4027L139.884 63.3119L139.622 63.4027ZM142.269 54.5018L142.44 54.7213L142.269 54.5018ZM148.979 56.4975L148.716 56.5883L148.979 56.4975ZM141.084 62.6817L141.351 62.6034L141.084 62.6817ZM145.501 63.9954L145.323 63.7824L145.321 63.7842L145.501 63.9954ZM147.517 57.2185L147.25 57.2951L147.251 57.2995L147.517 57.2185ZM143.105 55.888L142.925 55.6768L143.105 55.888ZM146.161 65.1789C145.107 65.9962 143.917 66.2072 142.559 65.8033L142.401 66.3356C143.92 66.7875 145.298 66.5511 146.502 65.6178L146.161 65.1789ZM142.559 65.8033C141.202 65.3994 140.32 64.5724 139.884 63.3119L139.36 63.4935C139.858 64.933 140.882 65.8838 142.401 66.3356L142.559 65.8033ZM139.884 63.3119C139.442 62.0333 139.474 60.4935 140.015 58.6754L139.483 58.5171C138.92 60.4077 138.868 62.0723 139.36 63.4935L139.884 63.3119ZM140.015 58.6754C140.556 56.8574 141.37 55.5503 142.44 54.7213L142.099 54.2824C140.911 55.2039 140.045 56.6265 139.483 58.5171L140.015 58.6754ZM142.44 54.7213C143.494 53.904 144.684 53.693 146.041 54.0969L146.2 53.5646C144.681 53.1127 143.303 53.3491 142.099 54.2824L142.44 54.7213ZM146.041 54.0969C147.399 54.5008 148.28 55.3278 148.716 56.5883L149.241 56.4067C148.743 54.9672 147.719 54.0164 146.2 53.5646L146.041 54.0969ZM148.716 56.5883C149.159 57.8669 149.127 59.4067 148.586 61.2248L149.118 61.3831C149.681 59.4925 149.733 57.8279 149.241 56.4067L148.716 56.5883ZM148.586 61.2248C148.045 63.0428 147.23 64.3499 146.161 65.1789L146.502 65.6178C147.69 64.6963 148.556 63.2737 149.118 61.3831L148.586 61.2248ZM140.818 62.7599C141.124 63.8025 141.812 64.4908 142.857 64.8016L143.016 64.2692C142.15 64.0118 141.604 63.4642 141.351 62.6034L140.818 62.7599ZM142.857 64.8016C143.902 65.1124 144.855 64.9122 145.681 64.2065L145.321 63.7842C144.638 64.3669 143.881 64.5267 143.016 64.2692L142.857 64.8016ZM145.679 64.2083C146.503 63.5186 147.125 62.4094 147.567 60.9218L147.035 60.7635C146.608 62.1978 146.03 63.1905 145.323 63.7824L145.679 64.2083ZM147.567 60.9218C148.01 59.4342 148.095 58.1656 147.782 57.1376L147.251 57.2995C147.52 58.1816 147.462 59.3291 147.035 60.7635L147.567 60.9218ZM147.784 57.142C147.481 56.0885 146.795 55.3931 145.748 55.0818L145.59 55.6141C146.454 55.8711 146.999 56.4227 147.25 57.2951L147.784 57.142ZM145.748 55.0818C144.703 54.7709 143.751 54.9711 142.925 55.6768L143.285 56.0991C143.968 55.5165 144.725 55.3567 145.59 55.6141L145.748 55.0818ZM142.925 55.6768C142.113 56.37 141.496 57.4858 141.05 58.9834L141.583 59.1418C142.013 57.6949 142.588 56.6943 143.285 56.0991L142.925 55.6768ZM141.05 58.9834C140.608 60.4702 140.517 61.7361 140.818 62.7599L141.351 62.6034C141.092 61.7238 141.156 60.577 141.583 59.1418L141.05 58.9834Z" fill="#FF5521" mask="url(#path-30-outside-15_1_6375)"/>
<mask id="path-32-outside-16_1_6375" maskUnits="userSpaceOnUse" x="146.976" y="55.7595" width="16.0639" height="17.4244" fill="black">
<rect fill="white" x="146.976" y="55.7595" width="16.0639" height="17.4244"/>
<path d="M156.194 70.0631C154.933 70.7349 153.63 70.7384 152.285 70.0735C150.939 69.4086 150.15 68.3714 149.918 66.962C149.686 65.5525 149.999 63.9806 150.856 62.2461C151.713 60.5117 152.772 59.3086 154.032 58.6367C155.293 57.9649 156.596 57.9614 157.941 58.6263C159.287 59.2912 160.076 60.3284 160.308 61.7378C160.54 63.1473 160.227 64.7193 159.37 66.4537C158.513 68.1881 157.454 69.3913 156.194 70.0631ZM151.481 66.4985C151.596 67.4837 152.1 68.1971 152.994 68.6387C153.887 69.0802 154.76 69.0473 155.612 68.5399C156.475 68.0377 157.244 67.1034 157.92 65.7368C158.595 64.3703 158.87 63.1918 158.745 62.2014C158.635 61.2056 158.134 60.4869 157.24 60.0454C156.347 59.6038 155.474 59.6368 154.621 60.1441C153.769 60.6515 153.003 61.5937 152.322 62.9708C151.647 64.3373 151.367 65.5132 151.481 66.4985Z"/>
</mask>
<path d="M156.194 70.0631C154.933 70.7349 153.63 70.7384 152.285 70.0735C150.939 69.4086 150.15 68.3714 149.918 66.962C149.686 65.5525 149.999 63.9806 150.856 62.2461C151.713 60.5117 152.772 59.3086 154.032 58.6367C155.293 57.9649 156.596 57.9614 157.941 58.6263C159.287 59.2912 160.076 60.3284 160.308 61.7378C160.54 63.1473 160.227 64.7193 159.37 66.4537C158.513 68.1881 157.454 69.3913 156.194 70.0631ZM151.481 66.4985C151.596 67.4837 152.1 68.1971 152.994 68.6387C153.887 69.0802 154.76 69.0473 155.612 68.5399C156.475 68.0377 157.244 67.1034 157.92 65.7368C158.595 64.3703 158.87 63.1918 158.745 62.2014C158.635 61.2056 158.134 60.4869 157.24 60.0454C156.347 59.6038 155.474 59.6368 154.621 60.1441C153.769 60.6515 153.003 61.5937 152.322 62.9708C151.647 64.3373 151.367 65.5132 151.481 66.4985Z" fill="#FF5521"/>
<path d="M156.194 70.0631L156.063 69.818L156.063 69.818L156.194 70.0631ZM149.918 66.962L150.192 66.9169L149.918 66.962ZM154.032 58.6367L154.163 58.8818L154.032 58.6367ZM160.308 61.7378L160.034 61.783L160.308 61.7378ZM151.481 66.4985L151.757 66.4663L151.481 66.4985ZM155.612 68.5399L155.473 68.2999L155.47 68.3013L155.612 68.5399ZM158.745 62.2014L158.469 62.2317L158.469 62.2362L158.745 62.2014ZM154.621 60.1441L154.479 59.9055L154.621 60.1441ZM156.063 69.818C154.886 70.4453 153.678 70.4522 152.408 69.8246L152.162 70.3225C153.582 71.0247 154.98 71.0246 156.324 70.3082L156.063 69.818ZM152.408 69.8246C151.138 69.1969 150.409 68.2329 150.192 66.9169L149.644 67.0071C149.892 68.51 150.741 69.6203 152.162 70.3225L152.408 69.8246ZM150.192 66.9169C149.972 65.5818 150.264 64.0697 151.105 62.3692L150.607 62.1231C149.733 63.8915 149.4 65.5232 149.644 67.0071L150.192 66.9169ZM151.105 62.3692C151.945 60.6687 152.969 59.5181 154.163 58.8818L153.902 58.3917C152.574 59.099 151.481 60.3547 150.607 62.1231L151.105 62.3692ZM154.163 58.8818C155.34 58.2545 156.548 58.2476 157.818 58.8753L158.064 58.3773C156.643 57.6752 155.246 57.6753 153.902 58.3917L154.163 58.8818ZM157.818 58.8753C159.088 59.5029 159.817 60.4669 160.034 61.783L160.582 61.6927C160.334 60.1898 159.485 59.0795 158.064 58.3773L157.818 58.8753ZM160.034 61.783C160.254 63.118 159.962 64.6302 159.121 66.3307L159.619 66.5767C160.493 64.8084 160.826 63.1766 160.582 61.6927L160.034 61.783ZM159.121 66.3307C158.281 68.0312 157.257 69.1817 156.063 69.818L156.324 70.3082C157.651 69.6008 158.745 68.3451 159.619 66.5767L159.121 66.3307ZM151.205 66.5306C151.331 67.6099 151.893 68.4046 152.871 68.8876L153.117 68.3897C152.307 67.9897 151.861 67.3576 151.757 66.4663L151.205 66.5306ZM152.871 68.8876C153.848 69.3706 154.821 69.3343 155.754 68.7785L155.47 68.3013C154.699 68.7602 153.926 68.7898 153.117 68.3897L152.871 68.8876ZM155.752 68.7799C156.681 68.2394 157.481 67.2513 158.169 65.8599L157.671 65.6138C157.008 66.9554 156.27 67.836 155.473 68.2999L155.752 68.7799ZM158.169 65.8599C158.856 64.4684 159.155 63.2326 159.02 62.1665L158.469 62.2362C158.585 63.1511 158.334 64.2722 157.671 65.6138L158.169 65.8599ZM159.021 62.171C158.901 61.0816 158.342 60.2802 157.363 59.7964L157.117 60.2943C157.925 60.6936 158.369 61.3295 158.469 62.2317L159.021 62.171ZM157.363 59.7964C156.386 59.3134 155.413 59.3497 154.479 59.9055L154.763 60.3828C155.534 59.9238 156.308 59.8943 157.117 60.2943L157.363 59.7964ZM154.479 59.9055C153.562 60.4515 152.765 61.447 152.073 62.8477L152.571 63.0938C153.24 61.7405 153.976 60.8515 154.763 60.3828L154.479 59.9055ZM152.073 62.8477C151.386 64.2384 151.082 65.4707 151.205 66.5306L151.757 66.4663C151.651 65.5557 151.908 64.4362 152.571 63.0938L152.073 62.8477Z" fill="#FF5521" mask="url(#path-32-outside-16_1_6375)"/>
<mask id="path-34-outside-17_1_6375" maskUnits="userSpaceOnUse" x="156.346" y="61.7205" width="17.1307" height="17.7922" fill="black">
<rect fill="white" x="156.346" y="61.7205" width="17.1307" height="17.7922"/>
<path d="M165.134 76.3279C163.778 76.777 162.493 76.5601 161.28 75.6774C160.066 74.7946 159.464 73.639 159.473 72.2106C159.483 70.7822 160.057 69.2857 161.195 67.7211C162.333 66.1565 163.58 65.1497 164.936 64.7006C166.292 64.2515 167.577 64.4684 168.79 65.3511C170.004 66.2339 170.606 67.3895 170.597 68.8179C170.587 70.2464 170.013 71.7428 168.875 73.3074C167.737 74.872 166.49 75.8788 165.134 76.3279ZM161.092 72.018C161.039 73.0085 161.415 73.7968 162.221 74.383C163.027 74.9693 163.893 75.0844 164.819 74.7284C165.754 74.3793 166.67 73.5884 167.567 72.3557C168.463 71.123 168.934 70.0079 168.978 69.0106C169.038 68.0106 168.665 67.2175 167.859 66.6313C167.053 66.045 166.187 65.9299 165.261 66.2859C164.336 66.6419 163.421 67.441 162.517 68.6832C161.621 69.9159 161.146 71.0275 161.092 72.018Z"/>
</mask>
<path d="M165.134 76.3279C163.778 76.777 162.493 76.5601 161.28 75.6774C160.066 74.7946 159.464 73.639 159.473 72.2106C159.483 70.7822 160.057 69.2857 161.195 67.7211C162.333 66.1565 163.58 65.1497 164.936 64.7006C166.292 64.2515 167.577 64.4684 168.79 65.3511C170.004 66.2339 170.606 67.3895 170.597 68.8179C170.587 70.2464 170.013 71.7428 168.875 73.3074C167.737 74.872 166.49 75.8788 165.134 76.3279ZM161.092 72.018C161.039 73.0085 161.415 73.7968 162.221 74.383C163.027 74.9693 163.893 75.0844 164.819 74.7284C165.754 74.3793 166.67 73.5884 167.567 72.3557C168.463 71.123 168.934 70.0079 168.978 69.0106C169.038 68.0106 168.665 67.2175 167.859 66.6313C167.053 66.045 166.187 65.9299 165.261 66.2859C164.336 66.6419 163.421 67.441 162.517 68.6832C161.621 69.9159 161.146 71.0275 161.092 72.018Z" fill="#FF5521"/>
<path d="M165.134 76.3279L165.047 76.0643L165.047 76.0643L165.134 76.3279ZM159.473 72.2106L159.751 72.2124L159.473 72.2106ZM164.936 64.7006L165.023 64.9642L164.936 64.7006ZM170.597 68.8179L170.319 68.8161L170.597 68.8179ZM161.092 72.018L161.37 72.0329L161.092 72.018ZM164.819 74.7284L164.722 74.4682L164.719 74.4692L164.819 74.7284ZM168.978 69.0106L168.7 68.9938L168.7 68.9983L168.978 69.0106ZM165.261 66.2859L165.162 66.0267L165.261 66.2859ZM165.047 76.0643C163.781 76.4836 162.589 76.2861 161.443 75.4528L161.116 75.9019C162.398 76.8342 163.776 77.0704 165.222 76.5915L165.047 76.0643ZM161.443 75.4528C160.297 74.6195 159.742 73.5461 159.751 72.2124L159.196 72.2087C159.186 73.7318 159.835 74.9697 161.116 75.9019L161.443 75.4528ZM159.751 72.2124C159.76 70.8595 160.304 69.4184 161.419 67.8844L160.97 67.5577C159.81 69.1529 159.206 70.7049 159.196 72.2087L159.751 72.2124ZM161.419 67.8844C162.535 66.3505 163.739 65.3896 165.023 64.9642L164.848 64.437C163.421 64.9098 162.13 65.9626 160.97 67.5577L161.419 67.8844ZM165.023 64.9642C166.289 64.5449 167.481 64.7424 168.627 65.5757L168.954 65.1266C167.672 64.1943 166.294 63.9581 164.848 64.437L165.023 64.9642ZM168.627 65.5757C169.773 66.409 170.328 67.4824 170.319 68.8161L170.874 68.8198C170.884 67.2967 170.235 66.0588 168.954 65.1266L168.627 65.5757ZM170.319 68.8161C170.31 70.1691 169.766 71.6101 168.651 73.1441L169.1 73.4708C170.26 71.8756 170.864 70.3236 170.874 68.8198L170.319 68.8161ZM168.651 73.1441C167.535 74.6781 166.331 75.6389 165.047 76.0643L165.222 76.5915C166.649 76.1187 167.94 75.066 169.1 73.4708L168.651 73.1441ZM160.815 72.003C160.756 73.088 161.176 73.9663 162.058 74.6076L162.384 74.1585C161.654 73.6273 161.321 72.9289 161.37 72.0329L160.815 72.003ZM162.058 74.6076C162.939 75.2489 163.904 75.3775 164.919 74.9876L164.719 74.4692C163.882 74.7912 163.115 74.6896 162.384 74.1585L162.058 74.6076ZM164.916 74.9885C165.923 74.6128 166.878 73.7742 167.791 72.519L167.342 72.1923C166.462 73.4026 165.586 74.1458 164.722 74.4682L164.916 74.9885ZM167.791 72.519C168.704 71.2639 169.208 70.0963 169.255 69.0228L168.7 68.9983C168.66 69.9196 168.222 70.9821 167.342 72.1923L167.791 72.519ZM169.255 69.0273C169.321 67.9333 168.906 67.049 168.023 66.4067L167.696 66.8558C168.425 67.386 168.755 68.0878 168.7 68.9938L169.255 69.0273ZM168.023 66.4067C167.141 65.7654 166.176 65.6367 165.162 66.0267L165.361 66.5451C166.199 66.2231 166.966 66.3247 167.696 66.8558L168.023 66.4067ZM165.162 66.0267C164.165 66.4098 163.212 67.2563 162.293 68.5198L162.742 68.8465C163.63 67.6257 164.506 66.874 165.361 66.5451L165.162 66.0267ZM162.293 68.5198C161.38 69.7743 160.873 70.9375 160.815 72.003L161.37 72.0329C161.419 71.1175 161.861 70.0574 162.742 68.8465L162.293 68.5198Z" fill="#FF5521" mask="url(#path-34-outside-17_1_6375)"/>
<mask id="path-36-outside-18_1_6375" maskUnits="userSpaceOnUse" x="169.405" y="75.2072" width="17.1951" height="16.4519" fill="black">
<rect fill="white" x="169.405" y="75.2072" width="17.1951" height="16.4519"/>
<path d="M185.566 82.9283L184.338 83.8694L182.124 80.9792L173.579 87.5244L172.595 86.2399L181.14 79.6947L178.937 76.8184L180.166 75.8773L185.566 82.9283Z"/>
</mask>
<path d="M185.566 82.9283L184.338 83.8694L182.124 80.9792L173.579 87.5244L172.595 86.2399L181.14 79.6947L178.937 76.8184L180.166 75.8773L185.566 82.9283Z" fill="#FF5521"/>
<path d="M185.566 82.9283L185.735 83.1487L185.956 82.9798L185.787 82.7594L185.566 82.9283ZM184.338 83.8694L184.117 84.0383L184.286 84.2587L184.507 84.0899L184.338 83.8694ZM182.124 80.9792L182.344 80.8103L182.175 80.5899L181.955 80.7587L182.124 80.9792ZM173.579 87.5244L173.358 87.6933L173.527 87.9138L173.748 87.7449L173.579 87.5244ZM172.595 86.2399L172.426 86.0194L172.206 86.1883L172.375 86.4088L172.595 86.2399ZM181.14 79.6947L181.309 79.9151L181.529 79.7462L181.36 79.5258L181.14 79.6947ZM178.937 76.8184L178.768 76.598L178.547 76.7668L178.716 76.9873L178.937 76.8184ZM180.166 75.8773L180.386 75.7084L180.217 75.4879L179.997 75.6568L180.166 75.8773ZM185.398 82.7078L184.169 83.6489L184.507 84.0899L185.735 83.1487L185.398 82.7078ZM184.558 83.7005L182.344 80.8103L181.903 81.1481L184.117 84.0383L184.558 83.7005ZM181.955 80.7587L173.41 87.304L173.748 87.7449L182.293 81.1996L181.955 80.7587ZM173.799 87.3556L172.815 86.071L172.375 86.4088L173.358 87.6933L173.799 87.3556ZM172.764 86.4603L181.309 79.9151L180.971 79.4742L172.426 86.0194L172.764 86.4603ZM181.36 79.5258L179.157 76.6495L178.716 76.9873L180.92 79.8635L181.36 79.5258ZM179.106 77.0389L180.334 76.0977L179.997 75.6568L178.768 76.598L179.106 77.0389ZM179.945 76.0461L185.346 83.0971L185.787 82.7594L180.386 75.7084L179.945 76.0461Z" fill="#FF5521" mask="url(#path-36-outside-18_1_6375)"/>
<mask id="path-38-outside-19_1_6375" maskUnits="userSpaceOnUse" x="177.296" y="88.4239" width="16.9663" height="15.1237" fill="black">
<rect fill="white" x="177.296" y="88.4239" width="16.9663" height="15.1237"/>
<path d="M181.533 100.968L184.56 96.4207L183.288 93.8122L179.051 95.8778L178.334 94.4075L189.401 89.0125L191.559 93.439C192.021 94.3876 192.079 95.3635 191.734 96.3669C191.399 97.3651 190.757 98.0954 189.808 98.5579C189.092 98.9073 188.333 99.0098 187.532 98.8654C186.736 98.7315 186.053 98.3865 185.481 97.8301L182.327 102.597L181.533 100.968ZM188.742 91.1533L184.616 93.1648L186.057 96.1211C186.324 96.6692 186.751 97.0353 187.336 97.2195C187.937 97.409 188.522 97.3651 189.091 97.0876C189.661 96.8102 190.05 96.3788 190.261 95.7936C190.476 95.219 190.45 94.6576 190.183 94.1096L188.742 91.1533Z"/>
</mask>
<path d="M181.533 100.968L184.56 96.4207L183.288 93.8122L179.051 95.8778L178.334 94.4075L189.401 89.0125L191.559 93.439C192.021 94.3876 192.079 95.3635 191.734 96.3669C191.399 97.3651 190.757 98.0954 189.808 98.5579C189.092 98.9073 188.333 99.0098 187.532 98.8654C186.736 98.7315 186.053 98.3865 185.481 97.8301L182.327 102.597L181.533 100.968ZM188.742 91.1533L184.616 93.1648L186.057 96.1211C186.324 96.6692 186.751 97.0353 187.336 97.2195C187.937 97.409 188.522 97.3651 189.091 97.0876C189.661 96.8102 190.05 96.3788 190.261 95.7936C190.476 95.219 190.45 94.6576 190.183 94.1096L188.742 91.1533Z" fill="#FF5521"/>
<path d="M181.533 100.968L181.302 100.814L181.213 100.947L181.283 101.09L181.533 100.968ZM184.56 96.4207L184.791 96.5746L184.879 96.4421L184.809 96.299L184.56 96.4207ZM183.288 93.8122L183.537 93.6906L183.416 93.4409L183.166 93.5626L183.288 93.8122ZM179.051 95.8778L178.801 95.9995L178.923 96.2491L179.173 96.1274L179.051 95.8778ZM178.334 94.4075L178.213 94.1579L177.963 94.2796L178.085 94.5292L178.334 94.4075ZM189.401 89.0125L189.65 88.8908L189.529 88.6412L189.279 88.7629L189.401 89.0125ZM191.734 96.3669L191.471 96.2764L191.47 96.2785L191.734 96.3669ZM187.532 98.8654L187.581 98.5921L187.578 98.5915L187.532 98.8654ZM185.481 97.8301L185.675 97.6312L185.435 97.3972L185.25 97.6768L185.481 97.8301ZM182.327 102.597L182.077 102.718L182.29 103.155L182.558 102.75L182.327 102.597ZM188.742 91.1533L188.992 91.0316L188.87 90.782L188.62 90.9036L188.742 91.1533ZM184.616 93.1648L184.494 92.9152L184.244 93.0369L184.366 93.2865L184.616 93.1648ZM187.336 97.2195L187.42 96.9546L187.419 96.9546L187.336 97.2195ZM190.261 95.7936L190.001 95.6961L189.999 95.6997L190.261 95.7936ZM181.764 101.122L184.791 96.5746L184.328 96.2669L181.302 100.814L181.764 101.122ZM184.809 96.299L183.537 93.6906L183.038 93.9339L184.31 96.5424L184.809 96.299ZM183.166 93.5626L178.929 95.6282L179.173 96.1274L183.41 94.0619L183.166 93.5626ZM179.301 95.7561L178.584 94.2858L178.085 94.5292L178.801 95.9995L179.301 95.7561ZM178.456 94.6572L189.522 89.2621L189.279 88.7629L178.213 94.1579L178.456 94.6572ZM189.151 89.1342L191.309 93.5607L191.808 93.3173L189.65 88.8908L189.151 89.1342ZM191.309 93.5607C191.739 94.4426 191.793 95.3423 191.471 96.2764L191.996 96.4573C192.366 95.3848 192.303 94.3325 191.808 93.3173L191.309 93.5607ZM191.47 96.2785C191.159 97.206 190.568 97.8783 189.687 98.3082L189.93 98.8075C190.945 98.3125 191.638 97.5242 191.997 96.4553L191.47 96.2785ZM189.687 98.3082C189.024 98.6312 188.325 98.7262 187.581 98.5921L187.483 99.1387C188.34 99.2933 189.159 99.1833 189.93 98.8075L189.687 98.3082ZM187.578 98.5915C186.837 98.4669 186.205 98.1476 185.675 97.6312L185.288 98.0291C185.9 98.6253 186.635 98.9961 187.486 99.1392L187.578 98.5915ZM185.25 97.6768L182.095 102.443L182.558 102.75L185.713 97.9834L185.25 97.6768ZM182.576 102.475L181.782 100.847L181.283 101.09L182.077 102.718L182.576 102.475ZM188.62 90.9036L184.494 92.9152L184.737 93.4145L188.864 91.4029L188.62 90.9036ZM184.366 93.2865L185.807 96.2428L186.307 95.9994L184.865 93.0432L184.366 93.2865ZM185.807 96.2428C186.108 96.8599 186.595 97.2775 187.253 97.4844L187.419 96.9546C186.906 96.7931 186.54 96.4784 186.307 95.9994L185.807 96.2428ZM187.253 97.4843C187.922 97.6954 188.58 97.6457 189.213 97.3372L188.97 96.838C188.464 97.0845 187.953 97.1227 187.42 96.9546L187.253 97.4843ZM189.213 97.3372C189.846 97.0287 190.287 96.5422 190.522 95.8876L189.999 95.6997C189.814 96.2154 189.475 96.5916 188.97 96.838L189.213 97.3372ZM190.521 95.8911C190.763 95.2456 190.734 94.605 190.433 93.9879L189.934 94.2312C190.167 94.7102 190.19 95.1923 190.001 95.6961L190.521 95.8911ZM190.433 93.9879L188.992 91.0316L188.492 91.275L189.934 94.2312L190.433 93.9879Z" fill="#FF5521" mask="url(#path-38-outside-19_1_6375)"/>
<mask id="path-40-outside-20_1_6375" maskUnits="userSpaceOnUse" x="181.898" y="100.304" width="16.8035" height="16.0849" fill="black">
<rect fill="white" x="181.898" y="100.304" width="16.8035" height="16.0849"/>
<path d="M185.471 113.648L187.894 111.987L186.51 106.623L183.586 106.342L183.151 104.656L196.219 106.025L196.68 107.814L185.906 115.334L185.471 113.648ZM188.133 106.785L189.235 111.06L194.557 107.399L188.133 106.785Z"/>
</mask>
<path d="M185.471 113.648L187.894 111.987L186.51 106.623L183.586 106.342L183.151 104.656L196.219 106.025L196.68 107.814L185.906 115.334L185.471 113.648ZM188.133 106.785L189.235 111.06L194.557 107.399L188.133 106.785Z" fill="#FF5521"/>
<path d="M185.471 113.648L185.314 113.419L185.153 113.529L185.202 113.717L185.471 113.648ZM187.894 111.987L188.051 112.216L188.212 112.106L188.163 111.918L187.894 111.987ZM186.51 106.623L186.779 106.553L186.731 106.365L186.537 106.346L186.51 106.623ZM183.586 106.342L183.317 106.411L183.366 106.6L183.56 106.618L183.586 106.342ZM183.151 104.656L183.18 104.38L182.782 104.338L182.882 104.725L183.151 104.656ZM196.219 106.025L196.488 105.956L196.44 105.769L196.248 105.749L196.219 106.025ZM196.68 107.814L196.839 108.041L196.997 107.931L196.949 107.744L196.68 107.814ZM185.906 115.334L185.637 115.403L185.737 115.79L186.065 115.561L185.906 115.334ZM188.133 106.785L188.159 106.509L187.765 106.471L187.864 106.855L188.133 106.785ZM189.235 111.06L188.966 111.129L189.066 111.514L189.393 111.289L189.235 111.06ZM194.557 107.399L194.715 107.627L195.343 107.195L194.583 107.122L194.557 107.399ZM185.628 113.877L188.051 112.216L187.737 111.758L185.314 113.419L185.628 113.877ZM188.163 111.918L186.779 106.553L186.241 106.692L187.625 112.057L188.163 111.918ZM186.537 106.346L183.613 106.065L183.56 106.618L186.484 106.899L186.537 106.346ZM183.855 106.272L183.42 104.586L182.882 104.725L183.317 106.411L183.855 106.272ZM183.122 104.932L196.19 106.302L196.248 105.749L183.18 104.38L183.122 104.932ZM195.95 106.095L196.411 107.883L196.949 107.744L196.488 105.956L195.95 106.095ZM196.521 107.586L185.747 115.106L186.065 115.561L196.839 108.041L196.521 107.586ZM186.175 115.264L185.74 113.578L185.202 113.717L185.637 115.403L186.175 115.264ZM187.864 106.855L188.966 111.129L189.504 110.991L188.401 106.716L187.864 106.855ZM189.393 111.289L194.715 107.627L194.4 107.17L189.078 110.831L189.393 111.289ZM194.583 107.122L188.159 106.509L188.106 107.062L194.531 107.675L194.583 107.122Z" fill="#FF5521" mask="url(#path-40-outside-20_1_6375)"/>
<mask id="path-42-outside-21_1_6375" maskUnits="userSpaceOnUse" x="185.187" y="115.447" width="14.4964" height="13.5362" fill="black">
<rect fill="white" x="185.187" y="115.447" width="14.4964" height="13.5362"/>
<path d="M186.402 121.487L198.533 116.613L198.601 118.371L188.477 122.339L198.879 125.488L198.949 127.263L186.474 123.332L186.402 121.487Z"/>
</mask>
<path d="M186.402 121.487L198.533 116.613L198.601 118.371L188.477 122.339L198.879 125.488L198.949 127.263L186.474 123.332L186.402 121.487Z" fill="#FF5521"/>
<path d="M186.402 121.487L186.299 121.229L186.117 121.302L186.125 121.498L186.402 121.487ZM198.533 116.613L198.81 116.602L198.795 116.209L198.429 116.356L198.533 116.613ZM198.601 118.371L198.703 118.629L198.887 118.557L198.879 118.36L198.601 118.371ZM188.477 122.339L188.376 122.08L187.63 122.373L188.397 122.605L188.477 122.339ZM198.879 125.488L199.157 125.478L199.149 125.28L198.96 125.223L198.879 125.488ZM198.949 127.263L198.865 127.528L199.241 127.647L199.226 127.253L198.949 127.263ZM186.474 123.332L186.197 123.343L186.204 123.539L186.391 123.597L186.474 123.332ZM186.506 121.745L198.636 116.871L198.429 116.356L186.299 121.229L186.506 121.745ZM198.255 116.624L198.324 118.382L198.879 118.36L198.81 116.602L198.255 116.624ZM198.5 118.112L188.376 122.08L188.579 122.598L198.703 118.629L198.5 118.112ZM188.397 122.605L198.799 125.754L198.96 125.223L188.558 122.073L188.397 122.605ZM198.602 125.499L198.671 127.274L199.226 127.253L199.157 125.478L198.602 125.499ZM199.032 126.998L186.558 123.068L186.391 123.597L198.865 127.528L199.032 126.998ZM186.752 123.322L186.68 121.476L186.125 121.498L186.197 123.343L186.752 123.322Z" fill="#FF5521" mask="url(#path-42-outside-21_1_6375)"/>
<mask id="path-44-outside-22_1_6375" maskUnits="userSpaceOnUse" x="184.036" y="131.737" width="15.139" height="10.2249" fill="black">
<rect fill="white" x="184.036" y="131.737" width="15.139" height="10.2249"/>
<path d="M187.557 134.09L186.602 139.725L185.076 139.467L186.304 132.219L198.442 134.274L197.23 141.436L195.704 141.177L196.643 135.628L192.915 134.997L192.049 140.112L190.54 139.857L191.406 134.741L187.557 134.09Z"/>
</mask>
<path d="M187.557 134.09L186.602 139.725L185.076 139.467L186.304 132.219L198.442 134.274L197.23 141.436L195.704 141.177L196.643 135.628L192.915 134.997L192.049 140.112L190.54 139.857L191.406 134.741L187.557 134.09Z" fill="#FF5521"/>
<path d="M187.557 134.09L187.603 133.816L187.329 133.77L187.283 134.043L187.557 134.09ZM186.602 139.725L186.556 139.999L186.83 140.046L186.876 139.772L186.602 139.725ZM185.076 139.467L184.803 139.421L184.756 139.695L185.03 139.741L185.076 139.467ZM186.304 132.219L186.35 131.945L186.076 131.898L186.03 132.172L186.304 132.219ZM198.442 134.274L198.716 134.32L198.763 134.046L198.489 134L198.442 134.274ZM197.23 141.436L197.183 141.709L197.457 141.756L197.504 141.482L197.23 141.436ZM195.704 141.177L195.43 141.131L195.384 141.405L195.657 141.451L195.704 141.177ZM196.643 135.628L196.917 135.675L196.963 135.401L196.69 135.354L196.643 135.628ZM192.915 134.997L192.961 134.723L192.688 134.677L192.641 134.951L192.915 134.997ZM192.049 140.112L192.003 140.386L192.276 140.433L192.323 140.159L192.049 140.112ZM190.54 139.857L190.266 139.811L190.22 140.085L190.494 140.131L190.54 139.857ZM191.406 134.741L191.68 134.788L191.727 134.514L191.453 134.468L191.406 134.741ZM187.283 134.043L186.329 139.679L186.876 139.772L187.831 134.136L187.283 134.043ZM186.649 139.452L185.123 139.193L185.03 139.741L186.556 139.999L186.649 139.452ZM185.35 139.513L186.578 132.265L186.03 132.172L184.803 139.421L185.35 139.513ZM186.257 132.492L198.396 134.548L198.489 134L186.35 131.945L186.257 132.492ZM198.169 134.227L196.956 141.389L197.504 141.482L198.716 134.32L198.169 134.227ZM197.276 141.162L195.75 140.903L195.657 141.451L197.183 141.709L197.276 141.162ZM195.978 141.224L196.917 135.675L196.37 135.582L195.43 141.131L195.978 141.224ZM196.69 135.354L192.961 134.723L192.869 135.271L196.597 135.902L196.69 135.354ZM192.641 134.951L191.775 140.066L192.323 140.159L193.189 135.043L192.641 134.951ZM192.095 139.839L190.587 139.583L190.494 140.131L192.003 140.386L192.095 139.839ZM190.814 139.903L191.68 134.788L191.133 134.695L190.266 139.811L190.814 139.903ZM191.453 134.468L187.603 133.816L187.51 134.363L191.36 135.015L191.453 134.468Z" fill="#FF5521" mask="url(#path-44-outside-22_1_6375)"/>
<mask id="path-46-outside-23_1_6375" maskUnits="userSpaceOnUse" x="180.337" y="143.231" width="15.9031" height="12.3491" fill="black">
<rect fill="white" x="180.337" y="143.231" width="15.9031" height="12.3491"/>
<path d="M184.819 145.946L182.982 150.93L181.529 150.394L183.933 143.876L195.484 148.135L194.918 149.67L184.819 145.946Z"/>
</mask>
<path d="M184.819 145.946L182.982 150.93L181.529 150.394L183.933 143.876L195.484 148.135L194.918 149.67L184.819 145.946Z" fill="#FF5521"/>
<path d="M184.819 145.946L184.915 145.686L184.655 145.59L184.558 145.85L184.819 145.946ZM182.982 150.93L182.886 151.19L183.146 151.286L183.242 151.026L182.982 150.93ZM181.529 150.394L181.269 150.298L181.173 150.559L181.433 150.655L181.529 150.394ZM183.933 143.876L184.029 143.616L183.768 143.52L183.672 143.78L183.933 143.876ZM195.484 148.135L195.745 148.231L195.841 147.971L195.58 147.875L195.484 148.135ZM194.918 149.67L194.822 149.93L195.083 150.026L195.179 149.766L194.918 149.67ZM184.558 145.85L182.721 150.834L183.242 151.026L185.08 146.042L184.558 145.85ZM183.078 150.669L181.626 150.134L181.433 150.655L182.886 151.19L183.078 150.669ZM181.79 150.49L184.193 143.972L183.672 143.78L181.269 150.298L181.79 150.49ZM183.837 144.137L195.388 148.396L195.58 147.875L184.029 143.616L183.837 144.137ZM195.223 148.039L194.658 149.574L195.179 149.766L195.745 148.231L195.223 148.039ZM195.014 149.409L184.915 145.686L184.723 146.207L194.822 149.93L195.014 149.409Z" fill="#FF5521" mask="url(#path-46-outside-23_1_6375)"/>
<mask id="path-48-outside-24_1_6375" maskUnits="userSpaceOnUse" x="174.901" y="153.608" width="16.1227" height="14.0141" fill="black">
<rect fill="white" x="174.901" y="153.608" width="16.1227" height="14.0141"/>
<path d="M180.172 156.587L177.467 161.159L176.135 160.371L179.673 154.392L190.268 160.661L189.435 162.068L180.172 156.587Z"/>
</mask>
<path d="M180.172 156.587L177.467 161.159L176.135 160.371L179.673 154.392L190.268 160.661L189.435 162.068L180.172 156.587Z" fill="#FF5521"/>
<path d="M180.172 156.587L180.313 156.348L180.074 156.207L179.933 156.446L180.172 156.587ZM177.467 161.159L177.326 161.398L177.565 161.539L177.706 161.3L177.467 161.159ZM176.135 160.371L175.896 160.229L175.755 160.468L175.994 160.61L176.135 160.371ZM179.673 154.392L179.814 154.153L179.575 154.011L179.434 154.25L179.673 154.392ZM190.268 160.661L190.507 160.802L190.649 160.563L190.41 160.422L190.268 160.661ZM189.435 162.068L189.294 162.307L189.533 162.449L189.674 162.21L189.435 162.068ZM179.933 156.446L177.228 161.017L177.706 161.3L180.411 156.729L179.933 156.446ZM177.608 160.92L176.276 160.132L175.994 160.61L177.326 161.398L177.608 160.92ZM176.374 160.512L179.912 154.533L179.434 154.25L175.896 160.229L176.374 160.512ZM179.531 154.631L190.127 160.9L190.41 160.422L179.814 154.153L179.531 154.631ZM190.029 160.519L189.196 161.927L189.674 162.21L190.507 160.802L190.029 160.519ZM189.577 161.829L180.313 156.348L180.03 156.826L189.294 162.307L189.577 161.829Z" fill="#FF5521" mask="url(#path-48-outside-24_1_6375)"/>
<mask id="path-50-outside-25_1_6375" maskUnits="userSpaceOnUse" x="167.775" y="163.093" width="15.8011" height="15.2446" fill="black">
<rect fill="white" x="167.775" y="163.093" width="15.8011" height="15.2446"/>
<path d="M173.676 166.243L169.908 170.541L168.744 169.521L173.59 163.993L182.848 172.108L178.06 177.57L176.896 176.55L180.606 172.318L177.763 169.825L174.342 173.727L173.192 172.718L176.612 168.817L173.676 166.243Z"/>
</mask>
<path d="M173.676 166.243L169.908 170.541L168.744 169.521L173.59 163.993L182.848 172.108L178.06 177.57L176.896 176.55L180.606 172.318L177.763 169.825L174.342 173.727L173.192 172.718L176.612 168.817L173.676 166.243Z" fill="#FF5521"/>
<path d="M173.676 166.243L173.859 166.034L173.65 165.851L173.467 166.06L173.676 166.243ZM169.908 170.541L169.725 170.75L169.934 170.933L170.117 170.724L169.908 170.541ZM168.744 169.521L168.535 169.338L168.352 169.546L168.561 169.73L168.744 169.521ZM173.59 163.993L173.773 163.784L173.565 163.601L173.382 163.81L173.59 163.993ZM182.848 172.108L183.057 172.291L183.24 172.083L183.031 171.9L182.848 172.108ZM178.06 177.57L177.877 177.779L178.085 177.962L178.268 177.753L178.06 177.57ZM176.896 176.55L176.687 176.367L176.504 176.576L176.713 176.759L176.896 176.55ZM180.606 172.318L180.815 172.501L180.998 172.292L180.789 172.109L180.606 172.318ZM177.763 169.825L177.946 169.617L177.737 169.433L177.554 169.642L177.763 169.825ZM174.342 173.727L174.159 173.936L174.368 174.119L174.551 173.91L174.342 173.727ZM173.192 172.718L172.983 172.535L172.8 172.744L173.009 172.927L173.192 172.718ZM176.612 168.817L176.821 169L177.004 168.791L176.795 168.608L176.612 168.817ZM173.467 166.06L169.699 170.358L170.117 170.724L173.885 166.426L173.467 166.06ZM170.091 170.332L168.927 169.312L168.561 169.73L169.725 170.75L170.091 170.332ZM168.953 169.704L173.799 164.176L173.382 163.81L168.535 169.338L168.953 169.704ZM173.407 164.201L182.665 172.317L183.031 171.9L173.773 163.784L173.407 164.201ZM182.639 171.925L177.851 177.387L178.268 177.753L183.057 172.291L182.639 171.925ZM178.243 177.362L177.079 176.341L176.713 176.759L177.877 177.779L178.243 177.362ZM177.105 176.733L180.815 172.501L180.397 172.135L176.687 176.367L177.105 176.733ZM180.789 172.109L177.946 169.617L177.579 170.034L180.423 172.527L180.789 172.109ZM177.554 169.642L174.133 173.544L174.551 173.91L177.971 170.008L177.554 169.642ZM174.525 173.518L173.375 172.509L173.009 172.927L174.159 173.936L174.525 173.518ZM173.4 172.901L176.821 169L176.403 168.634L172.983 172.535L173.4 172.901ZM176.795 168.608L173.859 166.034L173.493 166.452L176.429 169.025L176.795 168.608Z" fill="#FF5521" mask="url(#path-50-outside-25_1_6375)"/>
<mask id="path-52-outside-26_1_6375" maskUnits="userSpaceOnUse" x="157.175" y="171.731" width="16.4666" height="17.1933" fill="black">
<rect fill="white" x="157.175" y="171.731" width="16.4666" height="17.1933"/>
<path d="M159.672 177.173L164.736 179.221L167.035 177.45L164.158 173.716L165.453 172.718L172.968 182.469L169.068 185.475C168.232 186.12 167.288 186.374 166.235 186.237C165.19 186.11 164.345 185.629 163.701 184.793C163.214 184.161 162.961 183.439 162.941 182.625C162.912 181.819 163.112 181.08 163.542 180.408L158.237 178.279L159.672 177.173ZM170.739 182.256L167.937 178.62L165.332 180.628C164.849 181 164.576 181.491 164.514 182.102C164.449 182.729 164.61 183.293 164.997 183.794C165.383 184.296 165.884 184.591 166.5 184.679C167.106 184.774 167.651 184.636 168.134 184.263L170.739 182.256Z"/>
</mask>
<path d="M159.672 177.173L164.736 179.221L167.035 177.45L164.158 173.716L165.453 172.718L172.968 182.469L169.068 185.475C168.232 186.12 167.288 186.374 166.235 186.237C165.19 186.11 164.345 185.629 163.701 184.793C163.214 184.161 162.961 183.439 162.941 182.625C162.912 181.819 163.112 181.08 163.542 180.408L158.237 178.279L159.672 177.173ZM170.739 182.256L167.937 178.62L165.332 180.628C164.849 181 164.576 181.491 164.514 182.102C164.449 182.729 164.61 183.293 164.997 183.794C165.383 184.296 165.884 184.591 166.5 184.679C167.106 184.774 167.651 184.636 168.134 184.263L170.739 182.256Z" fill="#FF5521"/>
<path d="M159.672 177.173L159.776 176.916L159.629 176.856L159.502 176.953L159.672 177.173ZM164.736 179.221L164.632 179.479L164.78 179.538L164.906 179.441L164.736 179.221ZM167.035 177.45L167.204 177.67L167.424 177.5L167.255 177.28L167.035 177.45ZM164.158 173.716L163.988 173.496L163.768 173.666L163.938 173.886L164.158 173.716ZM165.453 172.718L165.673 172.548L165.504 172.328L165.284 172.498L165.453 172.718ZM172.968 182.469L173.138 182.689L173.358 182.52L173.188 182.3L172.968 182.469ZM166.235 186.237L166.271 185.962L166.269 185.962L166.235 186.237ZM162.941 182.625L163.219 182.618L163.219 182.615L162.941 182.625ZM163.542 180.408L163.776 180.558L163.956 180.275L163.645 180.15L163.542 180.408ZM158.237 178.279L158.068 178.059L157.683 178.356L158.134 178.537L158.237 178.279ZM170.739 182.256L170.908 182.476L171.128 182.306L170.959 182.086L170.739 182.256ZM167.937 178.62L168.157 178.45L167.987 178.23L167.767 178.4L167.937 178.62ZM164.514 182.102L164.79 182.13L164.79 182.13L164.514 182.102ZM166.5 184.679L166.543 184.404L166.539 184.404L166.5 184.679ZM159.568 177.431L164.632 179.479L164.84 178.964L159.776 176.916L159.568 177.431ZM164.906 179.441L167.204 177.67L166.865 177.23L164.567 179.001L164.906 179.441ZM167.255 177.28L164.378 173.547L163.938 173.886L166.815 177.619L167.255 177.28ZM164.327 173.936L165.623 172.938L165.284 172.498L163.988 173.496L164.327 173.936ZM165.233 172.887L172.748 182.639L173.188 182.3L165.673 172.548L165.233 172.887ZM172.799 182.25L168.898 185.256L169.237 185.695L173.138 182.689L172.799 182.25ZM168.898 185.256C168.121 185.854 167.251 186.089 166.271 185.962L166.2 186.513C167.325 186.658 168.343 186.385 169.237 185.695L168.898 185.256ZM166.269 185.962C165.297 185.843 164.52 185.4 163.921 184.623L163.481 184.962C164.171 185.857 165.082 186.377 166.202 186.513L166.269 185.962ZM163.921 184.623C163.471 184.04 163.237 183.374 163.219 182.618L162.663 182.632C162.685 183.503 162.958 184.283 163.481 184.962L163.921 184.623ZM163.219 182.615C163.191 181.864 163.377 181.181 163.776 180.558L163.308 180.259C162.847 180.978 162.632 181.773 162.663 182.635L163.219 182.615ZM163.645 180.15L158.341 178.021L158.134 178.537L163.438 180.666L163.645 180.15ZM158.407 178.499L159.842 177.393L159.502 176.953L158.068 178.059L158.407 178.499ZM170.959 182.086L168.157 178.45L167.717 178.789L170.519 182.425L170.959 182.086ZM167.767 178.4L165.162 180.408L165.501 180.847L168.106 178.84L167.767 178.4ZM165.162 180.408C164.618 180.827 164.307 181.388 164.237 182.073L164.79 182.13C164.845 181.595 165.079 181.173 165.501 180.847L165.162 180.408ZM164.237 182.073C164.166 182.771 164.347 183.406 164.777 183.964L165.217 183.625C164.873 183.179 164.733 182.686 164.79 182.13L164.237 182.073ZM164.777 183.964C165.206 184.522 165.772 184.855 166.46 184.954L166.539 184.404C165.997 184.326 165.56 184.07 165.217 183.625L164.777 183.964ZM166.457 184.953C167.138 185.06 167.759 184.903 168.303 184.483L167.964 184.044C167.542 184.369 167.074 184.488 166.543 184.405L166.457 184.953ZM168.303 184.483L170.908 182.476L170.569 182.036L167.964 184.044L168.303 184.483Z" fill="#FF5521" mask="url(#path-52-outside-26_1_6375)"/>
<mask id="path-54-outside-27_1_6375" maskUnits="userSpaceOnUse" x="147.122" y="178.489" width="15.202" height="16.993" fill="black">
<rect fill="white" x="147.122" y="178.489" width="15.202" height="16.993"/>
<path d="M151.677 181.544C152.705 181.031 153.706 180.832 154.682 180.948C155.646 181.069 156.485 181.475 157.198 182.168L156.301 183.52C155.205 182.403 153.892 182.227 152.361 182.992C151.605 183.369 151.104 183.809 150.858 184.313C150.616 184.826 150.624 185.34 150.881 185.854C151.143 186.379 151.538 186.673 152.068 186.736C152.598 186.799 153.403 186.744 154.483 186.571C155.018 186.488 155.427 186.428 155.71 186.391C155.998 186.365 156.371 186.349 156.827 186.344C157.278 186.355 157.64 186.41 157.912 186.51C158.19 186.62 158.481 186.796 158.785 187.037C159.079 187.284 159.325 187.606 159.524 188.005C160.001 188.96 160.042 189.882 159.649 190.774C159.26 191.675 158.584 192.367 157.619 192.849C156.748 193.284 155.883 193.441 155.023 193.32C154.152 193.205 153.374 192.866 152.687 192.305L153.561 190.984C154.599 191.881 155.715 192.031 156.911 191.433C157.509 191.135 157.918 190.747 158.139 190.27C158.359 189.793 158.344 189.302 158.092 188.799C157.851 188.316 157.495 188.036 157.023 187.957C156.551 187.878 155.822 187.914 154.836 188.066C154.485 188.124 154.236 188.163 154.089 188.184C153.942 188.205 153.711 188.228 153.397 188.254C153.072 188.286 152.83 188.301 152.673 188.301C152.516 188.301 152.303 188.296 152.036 188.285C151.758 188.28 151.54 188.251 151.383 188.198C151.226 188.146 151.04 188.075 150.825 187.986C150.605 187.912 150.424 187.813 150.282 187.687C150.141 187.561 149.997 187.403 149.85 187.215C149.698 187.041 149.564 186.84 149.449 186.609C148.967 185.644 148.933 184.697 149.348 183.769C149.768 182.852 150.544 182.11 151.677 181.544Z"/>
</mask>
<path d="M151.677 181.544C152.705 181.031 153.706 180.832 154.682 180.948C155.646 181.069 156.485 181.475 157.198 182.168L156.301 183.52C155.205 182.403 153.892 182.227 152.361 182.992C151.605 183.369 151.104 183.809 150.858 184.313C150.616 184.826 150.624 185.34 150.881 185.854C151.143 186.379 151.538 186.673 152.068 186.736C152.598 186.799 153.403 186.744 154.483 186.571C155.018 186.488 155.427 186.428 155.71 186.391C155.998 186.365 156.371 186.349 156.827 186.344C157.278 186.355 157.64 186.41 157.912 186.51C158.19 186.62 158.481 186.796 158.785 187.037C159.079 187.284 159.325 187.606 159.524 188.005C160.001 188.96 160.042 189.882 159.649 190.774C159.26 191.675 158.584 192.367 157.619 192.849C156.748 193.284 155.883 193.441 155.023 193.32C154.152 193.205 153.374 192.866 152.687 192.305L153.561 190.984C154.599 191.881 155.715 192.031 156.911 191.433C157.509 191.135 157.918 190.747 158.139 190.27C158.359 189.793 158.344 189.302 158.092 188.799C157.851 188.316 157.495 188.036 157.023 187.957C156.551 187.878 155.822 187.914 154.836 188.066C154.485 188.124 154.236 188.163 154.089 188.184C153.942 188.205 153.711 188.228 153.397 188.254C153.072 188.286 152.83 188.301 152.673 188.301C152.516 188.301 152.303 188.296 152.036 188.285C151.758 188.28 151.54 188.251 151.383 188.198C151.226 188.146 151.04 188.075 150.825 187.986C150.605 187.912 150.424 187.813 150.282 187.687C150.141 187.561 149.997 187.403 149.85 187.215C149.698 187.041 149.564 186.84 149.449 186.609C148.967 185.644 148.933 184.697 149.348 183.769C149.768 182.852 150.544 182.11 151.677 181.544Z" fill="#FF5521"/>
<path d="M154.682 180.948L154.716 180.672L154.714 180.672L154.682 180.948ZM157.198 182.168L157.43 182.321L157.557 182.129L157.392 181.969L157.198 182.168ZM156.301 183.52L156.103 183.715L156.343 183.96L156.532 183.674L156.301 183.52ZM150.858 184.313L150.608 184.19L150.606 184.195L150.858 184.313ZM152.068 186.736L152.101 186.46L152.101 186.46L152.068 186.736ZM154.483 186.571L154.44 186.297L154.439 186.297L154.483 186.571ZM155.71 186.391L155.685 186.114L155.674 186.116L155.71 186.391ZM156.827 186.344L156.833 186.067L156.824 186.067L156.827 186.344ZM157.912 186.51L158.015 186.252L158.008 186.249L157.912 186.51ZM158.785 187.037L158.964 186.825L158.958 186.82L158.785 187.037ZM159.649 190.774L159.395 190.662L159.394 190.664L159.649 190.774ZM155.023 193.32L155.061 193.045L155.059 193.045L155.023 193.32ZM152.687 192.305L152.456 192.151L152.317 192.361L152.511 192.52L152.687 192.305ZM153.561 190.984L153.742 190.774L153.503 190.567L153.329 190.83L153.561 190.984ZM158.139 190.27L158.391 190.386L158.139 190.27ZM157.023 187.957L156.977 188.231L156.977 188.231L157.023 187.957ZM154.836 188.066L154.794 187.792L154.791 187.792L154.836 188.066ZM154.089 188.184L154.05 187.909L154.05 187.909L154.089 188.184ZM153.397 188.254L153.374 187.977L153.37 187.978L153.397 188.254ZM152.673 188.301L152.673 188.023L152.673 188.023L152.673 188.301ZM152.036 188.285L152.047 188.008L152.041 188.008L152.036 188.285ZM151.383 188.198L151.471 187.935L151.383 188.198ZM150.825 187.986L150.931 187.729L150.922 187.726L150.913 187.722L150.825 187.986ZM150.282 187.687L150.467 187.479L150.467 187.479L150.282 187.687ZM149.85 187.215L150.069 187.044L150.064 187.038L150.058 187.031L149.85 187.215ZM149.348 183.769L149.095 183.654L149.094 183.656L149.348 183.769ZM151.801 181.793C152.789 181.299 153.736 181.115 154.649 181.224L154.714 180.672C153.677 180.549 152.621 180.762 151.553 181.296L151.801 181.793ZM154.647 181.223C155.551 181.337 156.334 181.716 157.005 182.367L157.392 181.969C156.637 181.235 155.742 180.801 154.716 180.672L154.647 181.223ZM156.967 182.014L156.07 183.367L156.532 183.674L157.43 182.321L156.967 182.014ZM156.499 183.326C155.916 182.731 155.26 182.373 154.531 182.275C153.805 182.178 153.038 182.343 152.236 182.743L152.485 183.24C153.215 182.875 153.87 182.747 154.457 182.826C155.042 182.904 155.59 183.192 156.103 183.715L156.499 183.326ZM152.236 182.743C151.453 183.135 150.892 183.611 150.608 184.19L151.107 184.435C151.316 184.008 151.758 183.603 152.485 183.24L152.236 182.743ZM150.606 184.195C150.328 184.786 150.338 185.389 150.632 185.978L151.129 185.73C150.91 185.291 150.904 184.867 151.109 184.431L150.606 184.195ZM150.632 185.978C150.931 186.577 151.402 186.936 152.035 187.011L152.101 186.46C151.674 186.409 151.354 186.181 151.129 185.73L150.632 185.978ZM152.035 187.011C152.605 187.079 153.442 187.019 154.527 186.846L154.439 186.297C153.363 186.469 152.59 186.518 152.101 186.46L152.035 187.011ZM154.526 186.846C155.06 186.762 155.466 186.703 155.745 186.666L155.674 186.116C155.387 186.153 154.975 186.213 154.44 186.297L154.526 186.846ZM155.735 186.668C156.013 186.642 156.377 186.627 156.83 186.622L156.824 186.067C156.364 186.072 155.983 186.087 155.685 186.114L155.735 186.668ZM156.82 186.622C157.256 186.632 157.584 186.686 157.817 186.771L158.008 186.249C157.695 186.135 157.3 186.078 156.833 186.067L156.82 186.622ZM157.81 186.768C158.056 186.866 158.324 187.026 158.612 187.255L158.958 186.82C158.638 186.566 158.324 186.375 158.015 186.252L157.81 186.768ZM158.606 187.25C158.867 187.468 159.091 187.759 159.276 188.129L159.772 187.881C159.559 187.454 159.291 187.099 158.964 186.825L158.606 187.25ZM159.276 188.129C159.719 189.018 159.751 189.854 159.395 190.662L159.903 190.886C160.333 189.911 160.282 188.901 159.772 187.881L159.276 188.129ZM159.394 190.664C159.034 191.499 158.407 192.145 157.494 192.601L157.743 193.098C158.76 192.59 159.487 191.852 159.904 190.884L159.394 190.664ZM157.494 192.601C156.668 193.014 155.859 193.157 155.061 193.045L154.984 193.595C155.906 193.725 156.828 193.555 157.743 193.098L157.494 192.601ZM155.059 193.045C154.241 192.936 153.51 192.619 152.863 192.09L152.511 192.52C153.238 193.113 154.064 193.473 154.986 193.596L155.059 193.045ZM152.919 192.458L153.792 191.137L153.329 190.83L152.456 192.151L152.919 192.458ZM153.379 191.194C153.93 191.67 154.517 191.961 155.14 192.044C155.763 192.128 156.397 192.001 157.035 191.682L156.787 191.185C156.23 191.463 155.707 191.56 155.214 191.494C154.719 191.427 154.229 191.194 153.742 190.774L153.379 191.194ZM157.035 191.682C157.674 191.363 158.137 190.935 158.391 190.386L157.887 190.153C157.699 190.559 157.344 190.907 156.787 191.185L157.035 191.682ZM158.391 190.386C158.649 189.826 158.627 189.248 158.341 188.675L157.844 188.923C158.061 189.357 158.069 189.759 157.887 190.153L158.391 190.386ZM158.341 188.675C158.066 188.124 157.64 187.778 157.069 187.683L156.977 188.231C157.349 188.293 157.637 188.508 157.844 188.923L158.341 188.675ZM157.069 187.683C156.55 187.596 155.784 187.639 154.794 187.792L154.878 188.341C155.86 188.19 156.551 188.16 156.977 188.231L157.069 187.683ZM154.791 187.792C154.44 187.85 154.193 187.888 154.05 187.909L154.128 188.459C154.278 188.437 154.53 188.398 154.881 188.34L154.791 187.792ZM154.05 187.909C153.911 187.929 153.688 187.951 153.374 187.977L153.42 188.531C153.735 188.505 153.973 188.481 154.128 188.459L154.05 187.909ZM153.37 187.978C153.046 188.009 152.816 188.024 152.673 188.023L152.673 188.579C152.844 188.579 153.097 188.562 153.423 188.531L153.37 187.978ZM152.673 188.023C152.521 188.023 152.313 188.018 152.047 188.008L152.025 188.563C152.294 188.573 152.51 188.579 152.673 188.579L152.673 188.023ZM152.041 188.008C151.775 188.002 151.59 187.975 151.471 187.935L151.295 188.462C151.491 188.527 151.741 188.557 152.031 188.563L152.041 188.008ZM151.471 187.935C151.322 187.885 151.142 187.817 150.931 187.729L150.718 188.242C150.937 188.333 151.13 188.407 151.295 188.462L151.471 187.935ZM150.913 187.722C150.72 187.658 150.575 187.575 150.467 187.479L150.098 187.894C150.273 188.05 150.489 188.166 150.737 188.249L150.913 187.722ZM150.467 187.479C150.341 187.367 150.208 187.223 150.069 187.044L149.631 187.385C149.785 187.584 149.941 187.755 150.098 187.894L150.467 187.479ZM150.058 187.031C149.924 186.878 149.803 186.697 149.697 186.485L149.2 186.733C149.325 186.982 149.472 187.205 149.641 187.398L150.058 187.031ZM149.697 186.485C149.25 185.589 149.223 184.729 149.601 183.883L149.094 183.656C148.643 184.665 148.684 185.699 149.2 186.733L149.697 186.485ZM149.6 183.885C149.988 183.038 150.71 182.338 151.801 181.793L151.553 181.296C150.378 181.883 149.548 182.665 149.095 183.654L149.6 183.885Z" fill="#FF5521" mask="url(#path-54-outside-27_1_6375)"/>
<path d="M154.229 127.446C131.385 123.809 125.592 115.566 122.345 94.7474C118.967 117.114 110.977 123.255 90.2285 127.446C113.73 130.806 119.438 138.737 122.345 158.747C124.96 137.515 132.801 131.459 154.229 127.446Z" fill="#FF5521"/>
</svg>
